<svg xmlns="http://www.w3.org/2000/svg" style="display: none;">

  <symbol id="leaf" viewBox="0 0 1792 1792">
    <path d="M1280 704q0-26-19-45t-45-19q-172 0-318 49.5t-259.5 134-235.5 219.5q-19 21-19 45 0 26 19 45t45 19q24 0 45-19 27-24 74-71t67-66q137-124 268.5-176t313.5-52q26 0 45-19t19-45zm512-198q0 95-20 193-46 224-184.5 383t-357.5 268q-214 108-438 108-148 0-286-47-15-5-88-42t-96-37q-16 0-39.5 32t-45 70-52.5 70-60 32q-43 0-63.5-17.5t-45.5-59.5q-2-4-6-11t-5.5-10-3-9.5-1.5-13.5q0-35 31-73.5t68-65.5 68-56 31-48q0-4-14-38t-16-44q-9-51-9-104 0-115 43.5-220t119-184.5 170.5-139 204-95.5q55-18 145-25.5t179.5-9 178.5-6 163.5-24 113.5-56.5l29.5-29.5 29.5-28 27-20 36.5-16 43.5-4.5q39 0 70.5 46t47.5 112 24 124 8 96z"/>
  </symbol>

  <symbol id="pagelines" viewBox="0 0 1792 1792">
    <path d="M1594 1103q-32 80-76 138t-91 88.5-99 46.5-101.5 14.5-96.5-8.5-86.5-22-69.5-27.5-46-22.5l-17-10q-113 228-289.5 359.5t-384.5 132.5q-19 0-32-13t-13-32 13-31.5 32-12.5q173-1 322.5-107.5t251.5-294.5q-36 14-72 23t-83 13-91-2.5-93-28.5-92-59-84.5-100-74.5-146q114-47 214-57t167.5 7.5 124.5 56.5 88.5 77 56.5 82q53-131 79-291-7 1-18 2.5t-46.5 2.5-69.5-.5-81.5-10-88.5-23-84-42.5-75-65-54.5-94.5-28.5-127.5q70-28 133.5-36.5t112.5 1 92 30 73.5 50 56 61 42 63 27.5 56 16 39.5l4 16q12-122 12-195-8-6-21.5-16t-49-44.5-63.5-71.5-54-93-33-112.5 12-127 70-138.5q73 25 127.5 61.5t84.5 76.5 48 85 20.5 89-.5 85.5-13 76.5-19 62-17 42l-7 15q1 4 1 50t-1 72q3-7 10-18.5t30.5-43 50.5-58 71-55.5 91.5-44.5 112-14.5 132.5 24q-2 78-21.5 141.5t-50 104.5-69.5 71.5-81.5 45.5-84.5 24-80 9.5-67.5-1-46.5-4.5l-17-3q-23 147-73 283 6-7 18-18.5t49.5-41 77.5-52.5 99.5-42 117.5-20 129 23.5 137 77.5z"/>
  </symbol>

  <symbol id="clock" viewBox="0 0 1792 1792">
    <path d="M1024 544v448q0 14-9 23t-23 9h-320q-14 0-23-9t-9-23v-64q0-14 9-23t23-9h224v-352q0-14 9-23t23-9h64q14 0 23 9t9 23zm416 352q0-148-73-273t-198-198-273-73-273 73-198 198-73 273 73 273 198 198 273 73 273-73 198-198 73-273zm224 0q0 209-103 385.5t-279.5 279.5-385.5 103-385.5-103-279.5-279.5-103-385.5 103-385.5 279.5-279.5 385.5-103 385.5 103 279.5 279.5 103 385.5z"/>
  </symbol>

  <symbol id="cloud" viewBox="0 0 2048 1792">
    <path d="M1984 1152q0 159-112.5 271.5t-271.5 112.5h-1088q-185 0-316.5-131.5t-131.5-316.5q0-132 71-241.5t187-163.5q-2-28-2-43 0-212 150-362t362-150q158 0 286.5 88t187.5 230q70-62 166-62 106 0 181 75t75 181q0 75-41 138 129 30 213 134.5t84 239.5z"/>
  </symbol>

  <symbol id="television" viewBox="0 0 2048 1792">
    <path d="M1792 1248v-960q0-13-9.5-22.5t-22.5-9.5h-1600q-13 0-22.5 9.5t-9.5 22.5v960q0 13 9.5 22.5t22.5 9.5h1600q13 0 22.5-9.5t9.5-22.5zm128-960v960q0 66-47 113t-113 47h-736v128h352q14 0 23 9t9 23v64q0 14-9 23t-23 9h-832q-14 0-23-9t-9-23v-64q0-14 9-23t23-9h352v-128h-736q-66 0-113-47t-47-113v-960q0-66 47-113t113-47h1600q66 0 113 47t47 113z"/>
  </symbol>

  <symbol id="family" viewBox="0 0 2048 1792">
    <path d="M657 896q-162 5-265 128h-134q-82 0-138-40.5t-56-118.5q0-353 124-353 6 0 43.5 21t97.5 42.5 119 21.5q67 0 133-23-5 37-5 66 0 139 81 256zm1071 637q0 120-73 189.5t-194 69.5h-874q-121 0-194-69.5t-73-189.5q0-53 3.5-103.5t14-109 26.5-108.5 43-97.5 62-81 85.5-53.5 111.5-20q10 0 43 21.5t73 48 107 48 135 21.5 135-21.5 107-48 73-48 43-21.5q61 0 111.5 20t85.5 53.5 62 81 43 97.5 26.5 108.5 14 109 3.5 103.5zm-1024-1277q0 106-75 181t-181 75-181-75-75-181 75-181 181-75 181 75 75 181zm704 384q0 159-112.5 271.5t-271.5 112.5-271.5-112.5-112.5-271.5 112.5-271.5 271.5-112.5 271.5 112.5 112.5 271.5zm576 225q0 78-56 118.5t-138 40.5h-134q-103-123-265-128 81-117 81-256 0-29-5-66 66 23 133 23 59 0 119-21.5t97.5-42.5 43.5-21q124 0 124 353zm-128-609q0 106-75 181t-181 75-181-75-75-181 75-181 181-75 181 75 75 181z"/>
  </symbol>

</svg>
