<svg aria-hidden="true" version="1.1" xmlns="http://www.w3.org/2000/svg" xmlns:xlink="http://www.w3.org/1999/xlink">
  <defs>
    <symbol id="leaf" viewBox="0 0 28 28">
      <path d="M20 11c0-0.547-0.453-1-1-1-5.531 0-9.094 2.312-12.703 6.297-0.187 0.203-0.297 0.422-0.297 0.703 0 0.547 0.453 1 1 1 0.281 0 0.5-0.109 0.703-0.297 0.766-0.688 1.453-1.437 2.203-2.141 2.828-2.547 5.25-3.563 9.094-3.563 0.547 0 1-0.453 1-1zM28 7.906c0 1-0.109 2.016-0.313 3.016-1 4.859-4.125 8.016-8.469 10.172-2.109 1.062-4.469 1.687-6.844 1.687-1.5 0-3.047-0.25-4.469-0.734-0.75-0.25-2.25-1.234-2.875-1.234-0.781 0-1.719 3.187-3.078 3.187-0.984 0-1.281-0.484-1.703-1.203-0.141-0.266-0.25-0.359-0.25-0.688 0-1.625 3.094-2.891 3.094-3.797 0-0.141-0.406-0.969-0.469-1.281-0.094-0.531-0.141-1.078-0.141-1.625 0-4.969 3.953-8.516 8.391-9.984 3.203-1.062 10.016 0.172 12.187-1.891 0.859-0.797 1.281-1.531 2.594-1.531 1.766 0 2.344 4.578 2.344 5.906z"></path>
    </symbol>

    <symbol id="eye" viewBox="0 0 28 28">
      <path d="M26 15c-1.484-2.297-3.516-4.266-5.953-5.516 0.625 1.062 0.953 2.281 0.953 3.516 0 3.859-3.141 7-7 7s-7-3.141-7-7c0-1.234 0.328-2.453 0.953-3.516-2.438 1.25-4.469 3.219-5.953 5.516 2.672 4.125 6.984 7 12 7s9.328-2.875 12-7zM14.75 9c0-0.406-0.344-0.75-0.75-0.75-2.609 0-4.75 2.141-4.75 4.75 0 0.406 0.344 0.75 0.75 0.75s0.75-0.344 0.75-0.75c0-1.781 1.469-3.25 3.25-3.25 0.406 0 0.75-0.344 0.75-0.75zM28 15c0 0.391-0.125 0.75-0.313 1.078-2.875 4.734-8.141 7.922-13.687 7.922s-10.813-3.203-13.687-7.922c-0.187-0.328-0.313-0.688-0.313-1.078s0.125-0.75 0.313-1.078c2.875-4.719 8.141-7.922 13.687-7.922s10.813 3.203 13.687 7.922c0.187 0.328 0.313 0.688 0.313 1.078z"></path>
    </symbol>

    <symbol id="flag" viewBox="0 0 29 28">
      <path d="M26 16.328v-9.625c-1.25 0.672-3 1.422-4.781 1.422v0c-0.828 0-1.594-0.156-2.266-0.5-1.672-0.828-3.484-1.625-5.656-1.625-2.016 0-4.484 0.984-6.297 1.984v9.359c2.063-0.953 4.688-1.766 6.766-1.766 2.406 0 3.969 0.797 5.641 1.625l0.438 0.219c0.438 0.219 0.969 0.344 1.578 0.344 1.734 0 3.609-0.922 4.578-1.437zM5 4c0 0.734-0.406 1.375-1 1.719v19.781c0 0.281-0.219 0.5-0.5 0.5h-1c-0.281 0-0.5-0.219-0.5-0.5v-19.781c-0.594-0.344-1-0.984-1-1.719 0-1.109 0.891-2 2-2s2 0.891 2 2zM28 5v11.922c0 0.375-0.219 0.719-0.547 0.891-0.063 0.031-0.156 0.078-0.266 0.141-1 0.531-3.359 1.813-5.766 1.813-0.922 0-1.75-0.187-2.469-0.547l-0.438-0.219c-1.578-0.797-2.828-1.422-4.75-1.422-2.25 0-5.422 1.172-7.25 2.281-0.156 0.094-0.344 0.141-0.516 0.141s-0.344-0.047-0.5-0.125c-0.313-0.187-0.5-0.516-0.5-0.875v-11.594c0-0.344 0.187-0.672 0.484-0.859 1-0.594 4.531-2.547 7.812-2.547 2.609 0 4.734 0.953 6.531 1.828 0.406 0.203 0.875 0.297 1.391 0.297 1.844 0 3.875-1.172 4.844-1.75 0.203-0.109 0.375-0.203 0.484-0.266 0.313-0.156 0.672-0.141 0.969 0.031 0.297 0.187 0.484 0.516 0.484 0.859z"></path>
    </symbol>

    <symbol id="fire" viewBox="0 0 1792 1792">
      <path d="M1600 1696v64q0 13-9.5 22.5t-22.5 9.5h-1344q-13 0-22.5-9.5t-9.5-22.5v-64q0-13 9.5-22.5t22.5-9.5h1344q13 0 22.5 9.5t9.5 22.5zm-256-1056q0 78-24.5 144t-64 112.5-87.5 88-96 77.5-87.5 72-64 81.5-24.5 96.5q0 96 67 224l-4-1 1 1q-90-41-160-83t-138.5-100-113.5-122.5-72.5-150.5-27.5-184q0-78 24.5-144t64-112.5 87.5-88 96-77.5 87.5-72 64-81.5 24.5-96.5q0-94-66-224l3 1-1-1q90 41 160 83t138.5 100 113.5 122.5 72.5 150.5 27.5 184z"/>
    </symbol>

    <symbol id="nature" viewBox="0 0 1792 1792">
      <path d="M1594 1103q-32 80-76 138t-91 88.5-99 46.5-101.5 14.5-96.5-8.5-86.5-22-69.5-27.5-46-22.5l-17-10q-113 228-289.5 359.5t-384.5 132.5q-19 0-32-13t-13-32 13-31.5 32-12.5q173-1 322.5-107.5t251.5-294.5q-36 14-72 23t-83 13-91-2.5-93-28.5-92-59-84.5-100-74.5-146q114-47 214-57t167.5 7.5 124.5 56.5 88.5 77 56.5 82q53-131 79-291-7 1-18 2.5t-46.5 2.5-69.5-.5-81.5-10-88.5-23-84-42.5-75-65-54.5-94.5-28.5-127.5q70-28 133.5-36.5t112.5 1 92 30 73.5 50 56 61 42 63 27.5 56 16 39.5l4 16q12-122 12-195-8-6-21.5-16t-49-44.5-63.5-71.5-54-93-33-112.5 12-127 70-138.5q73 25 127.5 61.5t84.5 76.5 48 85 20.5 89-.5 85.5-13 76.5-19 62-17 42l-7 15q1 4 1 50t-1 72q3-7 10-18.5t30.5-43 50.5-58 71-55.5 91.5-44.5 112-14.5 132.5 24q-2 78-21.5 141.5t-50 104.5-69.5 71.5-81.5 45.5-84.5 24-80 9.5-67.5-1-46.5-4.5l-17-3q-23 147-73 283 6-7 18-18.5t49.5-41 77.5-52.5 99.5-42 117.5-20 129 23.5 137 77.5z"/>
    </symbol>

    <symbol id="water" viewBox="0 0 1792 1792">
      <path d="M896 1152q0-36-20-69-1-1-15.5-22.5t-25.5-38-25-44-21-50.5q-4-16-21-16t-21 16q-7 23-21 50.5t-25 44-25.5 38-15.5 22.5q-20 33-20 69 0 53 37.5 90.5t90.5 37.5 90.5-37.5 37.5-90.5zm512-128q0 212-150 362t-362 150-362-150-150-362q0-145 81-275 6-9 62.5-90.5t101-151 99.5-178 83-201.5q9-30 34-47t51-17 51.5 17 33.5 47q28 93 83 201.5t99.5 178 101 151 62.5 90.5q81 127 81 275z"/>
    </symbol>

    <symbol id="twitter" viewBox="0 0 1792 1792">
      <path d="M1684 408q-67 98-162 167 1 14 1 42 0 130-38 259.5t-115.5 248.5-184.5 210.5-258 146-323 54.5q-271 0-496-145 35 4 78 4 225 0 401-138-105-2-188-64.5t-114-159.5q33 5 61 5 43 0 85-11-112-23-185.5-111.5t-73.5-205.5v-4q68 38 146 41-66-44-105-115t-39-154q0-88 44-163 121 149 294.5 238.5t371.5 99.5q-8-38-8-74 0-134 94.5-228.5t228.5-94.5q140 0 236 102 109-21 205-78-37 115-142 178 93-10 186-50z"/>
    </symbol>

    <symbol id="facebook" viewBox="0 0 1792 1792">
      <path d="M1343 12v264h-157q-86 0-116 36t-30 108v189h293l-39 296h-254v759h-306v-759h-255v-296h255v-218q0-186 104-288.5t277-102.5q147 0 228 12z"/>
    </symbol>

    <symbol id="youtube" viewBox="0 0 1792 1792">
      <path d="M1099 1244v211q0 67-39 67-23 0-45-22v-301q22-22 45-22 39 0 39 67zm338 1v46h-90v-46q0-68 45-68t45 68zm-966-218h107v-94h-312v94h105v569h100v-569zm288 569h89v-494h-89v378q-30 42-57 42-18 0-21-21-1-3-1-35v-364h-89v391q0 49 8 73 12 37 58 37 48 0 102-61v54zm429-148v-197q0-73-9-99-17-56-71-56-50 0-93 54v-217h-89v663h89v-48q45 55 93 55 54 0 71-55 9-27 9-100zm338-10v-13h-91q0 51-2 61-7 36-40 36-46 0-46-69v-87h179v-103q0-79-27-116-39-51-106-51-68 0-107 51-28 37-28 116v173q0 79 29 116 39 51 108 51 72 0 108-53 18-27 21-54 2-9 2-58zm-608-913v-210q0-69-43-69t-43 69v210q0 70 43 70t43-70zm719 751q0 234-26 350-14 59-58 99t-102 46q-184 21-555 21t-555-21q-58-6-102.5-46t-57.5-99q-26-112-26-350 0-234 26-350 14-59 58-99t103-47q183-20 554-20t555 20q58 7 102.5 47t57.5 99q26 112 26 350zm-998-1276h102l-121 399v271h-100v-271q-14-74-61-212-37-103-65-187h106l71 263zm370 333v175q0 81-28 118-38 51-106 51-67 0-105-51-28-38-28-118v-175q0-80 28-117 38-51 105-51 68 0 106 51 28 37 28 117zm335-162v499h-91v-55q-53 62-103 62-46 0-59-37-8-24-8-75v-394h91v367q0 33 1 35 3 22 21 22 27 0 57-43v-381h91z"/>
    </symbol>

    <symbol id="phone" viewBox="0 0 1792 1792">
      <path d="M1600 1240q0 27-10 70.5t-21 68.5q-21 50-122 106-94 51-186 51-27 0-53-3.5t-57.5-12.5-47-14.5-55.5-20.5-49-18q-98-35-175-83-127-79-264-216t-216-264q-48-77-83-175-3-9-18-49t-20.5-55.5-14.5-47-12.5-57.5-3.5-53q0-92 51-186 56-101 106-122 25-11 68.5-21t70.5-10q14 0 21 3 18 6 53 76 11 19 30 54t35 63.5 31 53.5q3 4 17.5 25t21.5 35.5 7 28.5q0 20-28.5 50t-62 55-62 53-28.5 46q0 9 5 22.5t8.5 20.5 14 24 11.5 19q76 137 174 235t235 174q2 1 19 11.5t24 14 20.5 8.5 22.5 5q18 0 46-28.5t53-62 55-62 50-28.5q14 0 28.5 7t35.5 21.5 25 17.5q25 15 53.5 31t63.5 35 54 30q70 35 76 53 3 7 3 21z" fill="#FFFFFF"/>
    </symbol>

    <symbol id="address" viewBox="0 0 1792 1792">
      <path d="M1152 640q0-106-75-181t-181-75-181 75-75 181 75 181 181 75 181-75 75-181zm256 0q0 109-33 179l-364 774q-16 33-47.5 52t-67.5 19-67.5-19-46.5-52l-365-774q-33-70-33-179 0-212 150-362t362-150 362 150 150 362z" fill="#FFFFFF"/>
    </symbol>

    <symbol id="bars" viewBox="0 0 1792 1792">
      <path d="M1664 1344v128q0 26-19 45t-45 19h-1408q-26 0-45-19t-19-45v-128q0-26 19-45t45-19h1408q26 0 45 19t19 45zm0-512v128q0 26-19 45t-45 19h-1408q-26 0-45-19t-19-45v-128q0-26 19-45t45-19h1408q26 0 45 19t19 45zm0-512v128q0 26-19 45t-45 19h-1408q-26 0-45-19t-19-45v-128q0-26 19-45t45-19h1408q26 0 45 19t19 45z" />
    </symbol>
  </defs>
</svg>