<svg aria-hidden="true" version="1.1" xmlns="http://www.w3.org/2000/svg" xmlns:xlink="http://www.w3.org/1999/xlink">
  <defs>
    <symbol id="leaf" viewBox="0 0 28 28">
      <path fill="currentColor" d="M20 11c0-0.547-0.453-1-1-1-5.531 0-9.094 2.312-12.703 6.297-0.187 0.203-0.297 0.422-0.297 0.703 0 0.547 0.453 1 1 1 0.281 0 0.5-0.109 0.703-0.297 0.766-0.688 1.453-1.437 2.203-2.141 2.828-2.547 5.25-3.563 9.094-3.563 0.547 0 1-0.453 1-1zM28 7.906c0 1-0.109 2.016-0.313 3.016-1 4.859-4.125 8.016-8.469 10.172-2.109 1.062-4.469 1.687-6.844 1.687-1.5 0-3.047-0.25-4.469-0.734-0.75-0.25-2.25-1.234-2.875-1.234-0.781 0-1.719 3.187-3.078 3.187-0.984 0-1.281-0.484-1.703-1.203-0.141-0.266-0.25-0.359-0.25-0.688 0-1.625 3.094-2.891 3.094-3.797 0-0.141-0.406-0.969-0.469-1.281-0.094-0.531-0.141-1.078-0.141-1.625 0-4.969 3.953-8.516 8.391-9.984 3.203-1.062 10.016 0.172 12.187-1.891 0.859-0.797 1.281-1.531 2.594-1.531 1.766 0 2.344 4.578 2.344 5.906z"></path>
    </symbol>

    <symbol id="eye" viewBox="0 0 28 28">
      <path fill="currentColor" d="M26 15c-1.484-2.297-3.516-4.266-5.953-5.516 0.625 1.062 0.953 2.281 0.953 3.516 0 3.859-3.141 7-7 7s-7-3.141-7-7c0-1.234 0.328-2.453 0.953-3.516-2.438 1.25-4.469 3.219-5.953 5.516 2.672 4.125 6.984 7 12 7s9.328-2.875 12-7zM14.75 9c0-0.406-0.344-0.75-0.75-0.75-2.609 0-4.75 2.141-4.75 4.75 0 0.406 0.344 0.75 0.75 0.75s0.75-0.344 0.75-0.75c0-1.781 1.469-3.25 3.25-3.25 0.406 0 0.75-0.344 0.75-0.75zM28 15c0 0.391-0.125 0.75-0.313 1.078-2.875 4.734-8.141 7.922-13.687 7.922s-10.813-3.203-13.687-7.922c-0.187-0.328-0.313-0.688-0.313-1.078s0.125-0.75 0.313-1.078c2.875-4.719 8.141-7.922 13.687-7.922s10.813 3.203 13.687 7.922c0.187 0.328 0.313 0.688 0.313 1.078z"></path>
    </symbol>

    <symbol id="flag" viewBox="0 0 29 28">
      <path fill="currentColor" d="M26 16.328v-9.625c-1.25 0.672-3 1.422-4.781 1.422v0c-0.828 0-1.594-0.156-2.266-0.5-1.672-0.828-3.484-1.625-5.656-1.625-2.016 0-4.484 0.984-6.297 1.984v9.359c2.063-0.953 4.688-1.766 6.766-1.766 2.406 0 3.969 0.797 5.641 1.625l0.438 0.219c0.438 0.219 0.969 0.344 1.578 0.344 1.734 0 3.609-0.922 4.578-1.437zM5 4c0 0.734-0.406 1.375-1 1.719v19.781c0 0.281-0.219 0.5-0.5 0.5h-1c-0.281 0-0.5-0.219-0.5-0.5v-19.781c-0.594-0.344-1-0.984-1-1.719 0-1.109 0.891-2 2-2s2 0.891 2 2zM28 5v11.922c0 0.375-0.219 0.719-0.547 0.891-0.063 0.031-0.156 0.078-0.266 0.141-1 0.531-3.359 1.813-5.766 1.813-0.922 0-1.75-0.187-2.469-0.547l-0.438-0.219c-1.578-0.797-2.828-1.422-4.75-1.422-2.25 0-5.422 1.172-7.25 2.281-0.156 0.094-0.344 0.141-0.516 0.141s-0.344-0.047-0.5-0.125c-0.313-0.187-0.5-0.516-0.5-0.875v-11.594c0-0.344 0.187-0.672 0.484-0.859 1-0.594 4.531-2.547 7.812-2.547 2.609 0 4.734 0.953 6.531 1.828 0.406 0.203 0.875 0.297 1.391 0.297 1.844 0 3.875-1.172 4.844-1.75 0.203-0.109 0.375-0.203 0.484-0.266 0.313-0.156 0.672-0.141 0.969 0.031 0.297 0.187 0.484 0.516 0.484 0.859z"></path>
    </symbol>

    <symbol id="arrow-down" viewBox="0 0 18 28">
      <path fill="currentColor" d="M16.797 11.5c0 0.125-0.063 0.266-0.156 0.359l-7.281 7.281c-0.094 0.094-0.234 0.156-0.359 0.156s-0.266-0.063-0.359-0.156l-7.281-7.281c-0.094-0.094-0.156-0.234-0.156-0.359s0.063-0.266 0.156-0.359l0.781-0.781c0.094-0.094 0.219-0.156 0.359-0.156 0.125 0 0.266 0.063 0.359 0.156l6.141 6.141 6.141-6.141c0.094-0.094 0.234-0.156 0.359-0.156s0.266 0.063 0.359 0.156l0.781 0.781c0.094 0.094 0.156 0.234 0.156 0.359z"></path>
    </symbol>

    <!--<symbol id="fire" viewBox="0 0 1792 1792">
      <path d="M1600 1696v64q0 13-9.5 22.5t-22.5 9.5h-1344q-13 0-22.5-9.5t-9.5-22.5v-64q0-13 9.5-22.5t22.5-9.5h1344q13 0 22.5 9.5t9.5 22.5zm-256-1056q0 78-24.5 144t-64 112.5-87.5 88-96 77.5-87.5 72-64 81.5-24.5 96.5q0 96 67 224l-4-1 1 1q-90-41-160-83t-138.5-100-113.5-122.5-72.5-150.5-27.5-184q0-78 24.5-144t64-112.5 87.5-88 96-77.5 87.5-72 64-81.5 24.5-96.5q0-94-66-224l3 1-1-1q90 41 160 83t138.5 100 113.5 122.5 72.5 150.5 27.5 184z"/>
    </symbol>-->

    <symbol id="nature" viewBox="0 0 1792 1792">
      <path fill="currentColor" d="M1594 1103q-32 80-76 138t-91 88.5-99 46.5-101.5 14.5-96.5-8.5-86.5-22-69.5-27.5-46-22.5l-17-10q-113 228-289.5 359.5t-384.5 132.5q-19 0-32-13t-13-32 13-31.5 32-12.5q173-1 322.5-107.5t251.5-294.5q-36 14-72 23t-83 13-91-2.5-93-28.5-92-59-84.5-100-74.5-146q114-47 214-57t167.5 7.5 124.5 56.5 88.5 77 56.5 82q53-131 79-291-7 1-18 2.5t-46.5 2.5-69.5-.5-81.5-10-88.5-23-84-42.5-75-65-54.5-94.5-28.5-127.5q70-28 133.5-36.5t112.5 1 92 30 73.5 50 56 61 42 63 27.5 56 16 39.5l4 16q12-122 12-195-8-6-21.5-16t-49-44.5-63.5-71.5-54-93-33-112.5 12-127 70-138.5q73 25 127.5 61.5t84.5 76.5 48 85 20.5 89-.5 85.5-13 76.5-19 62-17 42l-7 15q1 4 1 50t-1 72q3-7 10-18.5t30.5-43 50.5-58 71-55.5 91.5-44.5 112-14.5 132.5 24q-2 78-21.5 141.5t-50 104.5-69.5 71.5-81.5 45.5-84.5 24-80 9.5-67.5-1-46.5-4.5l-17-3q-23 147-73 283 6-7 18-18.5t49.5-41 77.5-52.5 99.5-42 117.5-20 129 23.5 137 77.5z"/>
    </symbol>

    <symbol id="water" viewBox="0 0 1792 1792">
      <path fill="currentColor" d="M896 1152q0-36-20-69-1-1-15.5-22.5t-25.5-38-25-44-21-50.5q-4-16-21-16t-21 16q-7 23-21 50.5t-25 44-25.5 38-15.5 22.5q-20 33-20 69 0 53 37.5 90.5t90.5 37.5 90.5-37.5 37.5-90.5zm512-128q0 212-150 362t-362 150-362-150-150-362q0-145 81-275 6-9 62.5-90.5t101-151 99.5-178 83-201.5q9-30 34-47t51-17 51.5 17 33.5 47q28 93 83 201.5t99.5 178 101 151 62.5 90.5q81 127 81 275z"/>
    </symbol>

    <symbol id="twitter" viewBox="0 0 1792 1792">
      <path fill="currentColor" d="M1684 408q-67 98-162 167 1 14 1 42 0 130-38 259.5t-115.5 248.5-184.5 210.5-258 146-323 54.5q-271 0-496-145 35 4 78 4 225 0 401-138-105-2-188-64.5t-114-159.5q33 5 61 5 43 0 85-11-112-23-185.5-111.5t-73.5-205.5v-4q68 38 146 41-66-44-105-115t-39-154q0-88 44-163 121 149 294.5 238.5t371.5 99.5q-8-38-8-74 0-134 94.5-228.5t228.5-94.5q140 0 236 102 109-21 205-78-37 115-142 178 93-10 186-50z"/>
    </symbol>

    <symbol id="facebook" viewBox="0 0 1792 1792">
      <path fill="currentColor" d="M1343 12v264h-157q-86 0-116 36t-30 108v189h293l-39 296h-254v759h-306v-759h-255v-296h255v-218q0-186 104-288.5t277-102.5q147 0 228 12z"/>
    </symbol>

    <!--<symbol id="youtube" viewBox="0 0 1792 1792">
      <path fill="currentColor" d="M1099 1244v211q0 67-39 67-23 0-45-22v-301q22-22 45-22 39 0 39 67zm338 1v46h-90v-46q0-68 45-68t45 68zm-966-218h107v-94h-312v94h105v569h100v-569zm288 569h89v-494h-89v378q-30 42-57 42-18 0-21-21-1-3-1-35v-364h-89v391q0 49 8 73 12 37 58 37 48 0 102-61v54zm429-148v-197q0-73-9-99-17-56-71-56-50 0-93 54v-217h-89v663h89v-48q45 55 93 55 54 0 71-55 9-27 9-100zm338-10v-13h-91q0 51-2 61-7 36-40 36-46 0-46-69v-87h179v-103q0-79-27-116-39-51-106-51-68 0-107 51-28 37-28 116v173q0 79 29 116 39 51 108 51 72 0 108-53 18-27 21-54 2-9 2-58zm-608-913v-210q0-69-43-69t-43 69v210q0 70 43 70t43-70zm719 751q0 234-26 350-14 59-58 99t-102 46q-184 21-555 21t-555-21q-58-6-102.5-46t-57.5-99q-26-112-26-350 0-234 26-350 14-59 58-99t103-47q183-20 554-20t555 20q58 7 102.5 47t57.5 99q26 112 26 350zm-998-1276h102l-121 399v271h-100v-271q-14-74-61-212-37-103-65-187h106l71 263zm370 333v175q0 81-28 118-38 51-106 51-67 0-105-51-28-38-28-118v-175q0-80 28-117 38-51 105-51 68 0 106 51 28 37 28 117zm335-162v499h-91v-55q-53 62-103 62-46 0-59-37-8-24-8-75v-394h91v367q0 33 1 35 3 22 21 22 27 0 57-43v-381h91z"/>
    </symbol>-->

    <symbol id="phone" viewBox="0 0 1792 1792">
      <path d="M1600 1240q0 27-10 70.5t-21 68.5q-21 50-122 106-94 51-186 51-27 0-53-3.5t-57.5-12.5-47-14.5-55.5-20.5-49-18q-98-35-175-83-127-79-264-216t-216-264q-48-77-83-175-3-9-18-49t-20.5-55.5-14.5-47-12.5-57.5-3.5-53q0-92 51-186 56-101 106-122 25-11 68.5-21t70.5-10q14 0 21 3 18 6 53 76 11 19 30 54t35 63.5 31 53.5q3 4 17.5 25t21.5 35.5 7 28.5q0 20-28.5 50t-62 55-62 53-28.5 46q0 9 5 22.5t8.5 20.5 14 24 11.5 19q76 137 174 235t235 174q2 1 19 11.5t24 14 20.5 8.5 22.5 5q18 0 46-28.5t53-62 55-62 50-28.5q14 0 28.5 7t35.5 21.5 25 17.5q25 15 53.5 31t63.5 35 54 30q70 35 76 53 3 7 3 21z" fill="#FFFFFF"/>
    </symbol>

    <symbol id="address" viewBox="0 0 1792 1792">
      <path d="M1152 640q0-106-75-181t-181-75-181 75-75 181 75 181 181 75 181-75 75-181zm256 0q0 109-33 179l-364 774q-16 33-47.5 52t-67.5 19-67.5-19-46.5-52l-365-774q-33-70-33-179 0-212 150-362t362-150 362 150 150 362z" fill="#FFFFFF"/>
    </symbol>

    <symbol id="bars" viewBox="0 0 1792 1792">
      <path fill="currentColor" d="M1664 1344v128q0 26-19 45t-45 19h-1408q-26 0-45-19t-19-45v-128q0-26 19-45t45-19h1408q26 0 45 19t19 45zm0-512v128q0 26-19 45t-45 19h-1408q-26 0-45-19t-19-45v-128q0-26 19-45t45-19h1408q26 0 45 19t19 45zm0-512v128q0 26-19 45t-45 19h-1408q-26 0-45-19t-19-45v-128q0-26 19-45t45-19h1408q26 0 45 19t19 45z" />
    </symbol>

    <symbol id="greenhouse" viewBox="0 0 511.999 511.999">
      <path d="M436.625 52.786c-.377 0-.751.019-1.126.028-5.22-25.779-28.003-45.186-55.322-45.186-29.456 0-53.631 22.566-56.207 51.352a44.926 44.926 0 0 0-22.82-6.195c-11.273 0-21.574 4.139-29.486 10.969v11.61l97.226 67.739h67.736c24.941 0 45.158-20.219 45.158-45.159s-20.218-45.158-45.159-45.158z" fill="#67d5ff"/>
      <g fill="#4dcefd">
        <path d="M370.3 97.947v-.002zM436.657 52.787c9.027 0 9.018-.001-.032-.001-.378 0-.751.019-1.126.028a55.906 55.906 0 0 0-.598-2.611c-.064-.255-.138-.507-.206-.761a53.826 53.826 0 0 0-.519-1.829c-.084-.276-.174-.549-.262-.824a55.118 55.118 0 0 0-.872-2.51 55.317 55.317 0 0 0-.736-1.861c-.079-.19-.157-.381-.238-.57a56.593 56.593 0 0 0-.993-2.185c-.03-.061-.056-.122-.085-.183-9.142-18.85-28.454-31.853-50.812-31.853-5.082 0-10.004.683-14.688 1.943-.144.039-.143.243 0 .285 16.196 4.69 29.394 16.438 36.043 31.696a.148.148 0 0 1-.057.184C382.768 53.473 370.3 74.274 370.3 97.942c0 5.845 4.739 10.583 10.584 10.583s10.584-4.738 10.584-10.584v.002c0-19.584 12.469-36.25 29.9-42.508a.16.16 0 0 1 .106 0c17.428 6.259 29.897 22.924 29.897 42.507 0 24.941-20.219 45.159-45.158 45.159h29.46c26.16 0 47.593-21.783 46.031-47.897-1.417-23.652-21.04-42.399-45.047-42.417z"/>
      </g>
      <path fill="#dcf3f4" d="M97.939 52.791l-.002 124.182 79.029-55.321V52.791z"/>
      <path fill="#a8d2d7" d="M75.356 7.632H199.54v45.155H75.356z"/>
      <path fill="#84b0b5" d="M199.545 7.632l-33.868-.005.016 45.164h33.852z"/>
      <path fill="#b0cdcf" d="M176.966 52.791h-33.855l.002 92.559 33.853-23.698z"/>
      <path fill="#dcf3f4" d="M75.356 199.551h361.271v304.815H75.356z"/>
      <path fill="#b0cdcf" d="M402.774 199.551h33.854v304.815h-33.854z"/>
      <path fill="#4fd255" d="M30.2 210.84h451.584L255.991 52.784z"/>
      <path fill="#2cb855" d="M255.991 52.784l-32.257 22.581L425.352 210.84h56.432z"/>
      <path d="M255.995 244.71c-31.167 18.038-52.153 51.715-52.153 90.316s20.985 72.279 52.153 90.316c31.168-18.038 52.153-51.715 52.153-90.316s-20.985-72.279-52.153-90.316z" fill="#4fd255"/>
      <path d="M255.995 244.71a104.673 104.673 0 0 0-16.934 12.218c21.593 19.104 35.219 47 35.219 78.098s-13.626 58.995-35.219 78.098a104.794 104.794 0 0 0 16.934 12.218c31.168-18.038 52.153-51.715 52.153-90.316s-20.985-72.279-52.153-90.316z" fill="#2cb855"/>
      <path d="M357.571 405.605c-16.566-7.056-36.333-5.345-51.772 6.237-15.44 11.581-22.615 30.079-20.479 47.958 16.566 7.056 36.333 5.345 51.772-6.237 15.441-11.581 22.615-30.079 20.479-47.958z" fill="#4fd255"/>
      <path d="M357.571 405.605c-3.674-1.564-7.51-2.672-11.417-3.363-1.512 13.838-8.496 27.043-20.511 36.056-12.016 9.013-26.648 12.022-40.356 9.6-.43 3.944-.441 7.936.033 11.902 16.566 7.056 36.333 5.345 51.772-6.237 15.441-11.581 22.615-30.079 20.479-47.958z" fill="#2cb855"/>
      <path d="M154.413 405.605c16.566-7.056 36.333-5.345 51.772 6.237s22.615 30.079 20.479 47.958c-16.566 7.056-36.333 5.345-51.772-6.237-15.441-11.581-22.615-30.079-20.479-47.958z" fill="#4fd255"/>
      <path d="M154.413 405.605c3.674-1.564 7.51-2.672 11.417-3.363 1.512 13.838 8.496 27.043 20.511 36.056 12.016 9.013 26.646 12.022 40.356 9.6.43 3.944.441 7.936-.033 11.902-16.566 7.056-36.333 5.345-51.772-6.237-15.441-11.581-22.615-30.079-20.479-47.958z" fill="#2cb855"/>
      <path d="M481.799 496.741h-37.542V218.47h37.528a7.63 7.63 0 0 0 4.374-13.879l-76.939-53.858h27.405c29.082 0 52.745-23.64 52.786-52.711 0-.025.004-.051.004-.076 0-.459-.023-.911-.035-1.366-.01-.41-.011-.823-.032-1.23-.022-.458-.064-.909-.098-1.364-.031-.414-.054-.829-.095-1.24-.044-.448-.106-.891-.161-1.336-.051-.411-.097-.824-.157-1.232-.065-.441-.145-.878-.223-1.316-.07-.404-.137-.81-.217-1.211-.086-.434-.185-.864-.282-1.294-.09-.399-.177-.798-.276-1.193-.106-.425-.223-.845-.34-1.266-.109-.393-.217-.785-.335-1.175-.126-.417-.26-.829-.396-1.242a48 48 0 0 0-.842-2.365 47.795 47.795 0 0 0-.95-2.311 58.343 58.343 0 0 0-1.052-2.256 51.67 51.67 0 0 0-.551-1.074 52.649 52.649 0 0 0-.604-1.123 47.164 47.164 0 0 0-.602-1.046c-.215-.365-.429-.729-.652-1.088a53.715 53.715 0 0 0-.655-1.021c-.229-.351-.457-.703-.694-1.048-.231-.336-.47-.665-.708-.995-.243-.337-.483-.675-.734-1.007-.247-.327-.505-.645-.759-.965-.256-.323-.51-.649-.774-.966-.264-.318-.54-.627-.813-.938-.268-.307-.531-.617-.806-.919-.293-.32-.597-.629-.897-.941-.268-.279-.53-.564-.804-.837-.414-.413-.842-.812-1.269-1.211-.401-.373-.808-.74-1.22-1.101-.371-.326-.74-.655-1.119-.97-.289-.239-.587-.466-.88-.698-.351-.279-.699-.562-1.058-.832-.308-.232-.626-.453-.939-.678-.355-.255-.708-.515-1.07-.762-.322-.221-.653-.43-.982-.644-.364-.237-.726-.476-1.098-.704-.335-.206-.675-.403-1.014-.601-.374-.22-.749-.439-1.129-.65-.345-.19-.695-.372-1.044-.555-.386-.202-.772-.404-1.164-.597-.353-.174-.711-.341-1.068-.508a56.28 56.28 0 0 0-1.199-.543 52.21 52.21 0 0 0-1.09-.458 48.555 48.555 0 0 0-3.619-1.325 46.856 46.856 0 0 0-2.435-.725 60.003 60.003 0 0 0-1.126-.297 50.75 50.75 0 0 0-1.361-.315c-.374-.082-.749-.166-1.127-.24a51.017 51.017 0 0 0-1.415-.253c-.371-.063-.741-.128-1.114-.183-.492-.072-.989-.13-1.485-.189-.361-.043-.72-.091-1.083-.125-.097-.009-.192-.024-.29-.034C433.362 18.753 408.49 0 380.178 0c-16.106 0-31.501 6-43.347 16.895-9.169 8.431-15.605 19.218-18.673 31.078a52.812 52.812 0 0 0-17.006-2.816 52.764 52.764 0 0 0-29.673 9.155l-11.11-7.778a7.628 7.628 0 0 0-8.75 0L184.596 93.45V60.42h14.95a7.629 7.629 0 0 0 7.629-7.629V7.632a7.629 7.629 0 0 0-7.629-7.629H75.36a7.629 7.629 0 0 0-7.629 7.629v45.159a7.629 7.629 0 0 0 7.629 7.629h14.95l-.001 99.032-64.483 45.138a7.629 7.629 0 1 0 4.374 13.879h37.527V496.74H30.2a7.629 7.629 0 1 0 0 15.258h451.598a7.629 7.629 0 0 0 .001-15.257zM301.15 60.416a37.486 37.486 0 0 1 18.958 5.145 7.629 7.629 0 0 0 11.461-5.9c2.266-25.313 23.164-44.402 48.61-44.402 20.305 0 38.284 12.655 45.481 31.053-23.86 5.064-41.819 26.287-41.819 51.634a7.63 7.63 0 0 0 15.258 0c0-20.365 16.31-36.983 36.552-37.504l.041.001.394-.012c.181-.003.361-.014.543-.014 2.586 0 5.112.263 7.552.764 17.085 3.505 29.975 18.658 29.975 36.766 0 20.694-16.836 37.53-37.53 37.53h-49.203l-102.17-71.521a37.467 37.467 0 0 1 15.897-3.54zM82.99 15.262h108.927v29.901H82.99V15.262zm86.347 45.159v43.711l-63.77 44.639.001-88.35h63.769zm94.286 301.897l18.36-9.179a7.628 7.628 0 0 0 3.412-10.235 7.629 7.629 0 0 0-10.234-3.413l-11.537 5.768v-32.813a7.629 7.629 0 1 0-15.258 0v10.237l-11.54-5.771a7.629 7.629 0 0 0-10.236 3.412 7.628 7.628 0 0 0 3.412 10.236l18.364 9.184v71.215c-23.035-18.192-36.895-46.201-36.895-75.933 0-32.884 16.951-63.665 44.524-81.382 27.572 17.717 44.523 48.497 44.523 81.382 0 29.732-13.859 57.741-36.894 75.933v-48.641zm0 134.423v-11.138l22.929-17.196a59.844 59.844 0 0 0 19.208 3.18c12.761 0 25.424-4.057 35.909-11.92 17.008-12.756 26.006-33.817 23.48-54.964a7.63 7.63 0 0 0-4.586-6.115c-19.595-8.343-42.331-5.607-59.34 7.149-15.804 11.852-24.684 30.873-23.839 50.473l-13.762 10.321v-36.904c32.276-20.444 52.153-56.283 52.153-94.601 0-39.806-21.442-76.944-55.96-96.919a7.634 7.634 0 0 0-7.644 0c-34.518 19.976-55.961 57.114-55.961 96.919 0 38.318 19.877 74.156 52.154 94.601v36.907l-13.766-10.324c.845-19.599-8.035-38.621-23.838-50.473-17.009-12.756-39.746-15.495-59.34-7.148a7.63 7.63 0 0 0-4.586 6.114c-2.526 21.147 6.471 42.209 23.48 54.964 10.486 7.863 23.147 11.92 35.907 11.92 6.47 0 12.96-1.062 19.209-3.18l22.934 17.199v11.135H82.986V210.84a7.63 7.63 0 0 0-7.629-7.629H54.403L255.992 62.097l201.59 141.114H111.874a7.629 7.629 0 1 0 0 15.258h317.124V496.74H263.623v.001zm28.965-42.396c-.23-14.177 6.344-27.817 17.791-36.402 11.446-8.584 26.381-11.077 39.926-6.886.23 14.177-6.345 27.817-17.79 36.402-11.447 8.585-26.381 11.077-39.927 6.886zm-113.118-6.886c-11.447-8.584-18.02-22.225-17.791-36.402 13.546-4.189 28.48-1.699 39.928 6.886 11.446 8.584 18.02 22.225 17.79 36.402-13.545 4.19-28.48 1.699-39.927-6.886z"/>
    </symbol>

    <symbol id="nursery" viewBox="0 0 512.001 512.001">
      <g fill="#fea084">
        <path d="M120.747 163.588c0-17.238-13.974-31.212-31.212-31.212H68.728v122.391h52.018l.001-91.179zM391.253 163.588c0-17.238 13.974-31.212 31.212-31.212h20.807v122.391h-52.018v-91.179z"/>
      </g>
      <path d="M422.464 119.513v116.229a31.13 31.13 0 0 0-10.405-1.784 31.084 31.084 0 0 0-20.231 7.444l-62.046 51.704c-6.937 5.724-11.358 14.388-11.358 24.084v114.463l83.231-.002v-31.228c0-10.378 5.065-19.573 12.858-25.248l57.554-43.169c7.772-5.677 12.82-14.859 12.82-25.221V119.513c0-17.238-13.974-31.212-31.212-31.212-17.237 0-31.211 13.974-31.211 31.212z" fill="#ffd2ba"/>
      <g fill="#ffbc99">
        <path d="M438.395 92.301c9.507 5.35 15.931 15.527 15.931 27.212v117.694c-7.253-10.918-18.611-18.886-31.863-21.66v20.214c12.119 4.287 20.805 15.84 20.805 29.428 0 3.031-.432 5.96-1.237 8.73a31.237 31.237 0 0 1-10.12 15.355l-49.56 40.931-.073.204c-6.834 5.725-11.184 14.317-11.184 23.93v77.313h30.56v-31.228c0-10.378 5.065-19.573 12.859-25.248l57.554-43.169c7.772-5.677 12.82-14.859 12.82-25.221V119.513c0-17.238-13.974-31.212-31.212-31.212a31.053 31.053 0 0 0-15.28 4z"/>
        <path d="M404.264 283.987a6.63 6.63 0 0 0 9.395.965l8.732-7.212a16.222 16.222 0 0 0 5.925-12.553c0-6.992-4.436-12.966-10.642-15.255-.136-.046-.27-.094-.404-.144a16.203 16.203 0 0 0-5.211-.856c-4.948 0-8.459 2.106-10.533 3.873l-.124.104-8.225 6.855a6.63 6.63 0 0 0-.928 9.241l12.015 14.982z"/>
      </g>
      <path fill="#dcf3f4" d="M297.618 421.229h124.848v41.64H297.618z"/>
      <path fill="#b0cdcf" d="M391.246 421.319h31.31v41.549h-31.31z"/>
      <path fill="#25739e" d="M276.808 452.439h166.458v52.022H276.808z"/>
      <path fill="#216486" d="M412.056 452.439h31.21v52.022h-31.21z"/>
      <path d="M89.536 119.513v116.229a31.13 31.13 0 0 1 10.405-1.784 31.082 31.082 0 0 1 20.231 7.444l62.046 51.704c6.937 5.724 11.358 14.388 11.358 24.084v114.463l-83.231-.002v-31.229c0-10.378-5.065-19.573-12.858-25.248l-57.554-43.169c-7.772-5.677-12.82-14.859-12.82-25.221V119.513c0-17.238 13.974-31.212 31.212-31.212 17.237 0 31.211 13.974 31.211 31.212z" fill="#ffd2ba"/>
      <g fill="#ffbc99">
        <path d="M73.605 92.3c-9.507 5.35-15.931 15.527-15.931 27.212v117.694c7.254-10.918 18.611-18.886 31.862-21.66v20.214c-12.119 4.287-20.805 15.841-20.805 29.428 0 3.03.432 5.96 1.237 8.73a31.232 31.232 0 0 0 10.121 15.355l49.56 40.931.073.204c6.834 5.725 11.184 14.317 11.184 23.93v77.313h-30.56v-31.228c0-10.378-5.065-19.573-12.859-25.248l-57.554-43.169c-7.772-5.677-12.82-14.859-12.82-25.221V119.513c0-17.238 13.974-31.212 31.212-31.212a31.052 31.052 0 0 1 15.28 3.999z"/>
        <path d="M107.736 283.987a6.63 6.63 0 0 1-9.396.965l-8.731-7.212a16.222 16.222 0 0 1-5.926-12.553c0-6.992 4.436-12.966 10.641-15.255.136-.046.27-.094.404-.144a16.203 16.203 0 0 1 5.211-.856c4.948 0 8.459 2.106 10.532 3.873l.124.104 8.225 6.854a6.63 6.63 0 0 1 .928 9.241l-12.012 14.983z"/>
      </g>
      <path fill="#dcf3f4" d="M89.54 421.229h124.848v41.64H89.54z"/>
      <path fill="#b0cdcf" d="M89.44 421.319h31.31v41.549H89.44z"/>
      <path fill="#25739e" d="M68.73 452.439h166.458v52.022H68.73z"/>
      <path fill="#216486" d="M68.73 452.439h31.21v52.022H68.73z"/>
      <path d="M256.002 5.07c-28.723 16.623-48.061 47.658-48.061 83.232s19.339 66.609 48.061 83.232c28.723-16.623 48.061-47.658 48.061-83.232 0-35.572-19.338-66.609-48.061-83.232z" fill="#4fd255"/>
      <path d="M256.002 5.07a96.503 96.503 0 0 0-15.606 11.259c19.898 17.605 32.457 43.314 32.457 71.972 0 28.659-12.557 54.368-32.457 71.973a96.52 96.52 0 0 0 15.606 11.259c28.723-16.623 48.061-47.659 48.061-83.232S284.725 21.693 256.002 5.07z" fill="#2cb855"/>
      <path d="M349.611 166.213c-15.266-6.502-33.482-4.926-47.712 5.748-14.229 10.672-20.841 27.72-18.872 44.196 15.266 6.502 33.482 4.926 47.712-5.748 14.228-10.674 20.84-27.72 18.872-44.196z" fill="#4fd255"/>
      <path d="M349.611 166.213a48.258 48.258 0 0 0-10.521-3.099c-1.394 12.753-7.829 24.921-18.903 33.227-11.073 8.306-24.557 11.078-37.19 8.846a48.25 48.25 0 0 0 .03 10.969c15.266 6.502 33.482 4.926 47.712-5.748 14.228-10.673 20.84-27.719 18.872-44.195z" fill="#2cb855"/>
      <path d="M162.387 166.213c15.266-6.502 33.482-4.926 47.712 5.748 14.229 10.672 20.841 27.72 18.872 44.196-15.266 6.502-33.482 4.926-47.712-5.748-14.228-10.674-20.84-27.72-18.872-44.196z" fill="#4fd255"/>
      <path d="M162.387 166.213a48.258 48.258 0 0 1 10.521-3.099c1.394 12.753 7.83 24.921 18.903 33.227 11.073 8.306 24.557 11.078 37.19 8.846a48.25 48.25 0 0 1-.03 10.969c-15.266 6.502-33.482 4.926-47.712-5.748-14.228-10.673-20.84-27.719-18.872-44.195z" fill="#2cb855"/>
      <path d="M453.68 80.765c-21.366 0-38.749 17.382-38.749 38.748v6.073c-17.77 3.518-31.213 19.219-31.213 38.006v74.76l-58.729 48.942c-8.96 7.394-14.098 18.292-14.098 29.897v96.504H297.62a7.536 7.536 0 0 0-7.536 7.536v23.676h-13.273a7.535 7.535 0 0 0-7.536 7.536v52.022a7.536 7.536 0 0 0 15.072 0v-44.486h151.39v44.486c0 4.162 3.373 7.536 7.536 7.536s7.536-3.374 7.536-7.536v-52.022a7.535 7.535 0 0 0-7.536-7.536h-13.271v-23.676a7.535 7.535 0 0 0-7.536-7.536h-13.272v-13.271c0-7.546 3.647-14.706 9.758-19.156l.085-.063 57.477-43.112c9.963-7.279 15.911-18.982 15.911-31.306V119.513c.001-21.365-17.381-38.748-38.745-38.748zm-38.749 60.389v85.387a38.92 38.92 0 0 0-2.869-.118 38.86 38.86 0 0 0-13.271 2.342v-65.173c0-10.421 6.77-19.283 16.14-22.438zm-.001 303.753H305.156v-16.139H414.93v16.139zm62.424-138.121c0 7.531-3.637 14.684-9.806 19.192l-57.515 43.139c-9.964 7.279-15.911 18.977-15.911 31.307v13.271h-68.159V317.19c0-7.092 3.141-13.752 8.646-18.296l61.417-51.181.045-.037.646-.539a23.68 23.68 0 0 1 15.344-5.644c13.055 0 23.674 10.621 23.674 23.675a23.62 23.62 0 0 1-8.621 18.275l-59.016 48.743a7.537 7.537 0 0 0 9.599 11.622l59.013-48.741c8.959-7.392 14.098-18.291 14.098-29.897 0-14.893-8.452-27.843-20.806-34.327v-111.33c0-13.055 10.621-23.675 23.676-23.675 13.055 0 23.674 10.621 23.674 23.675v187.273z"/>
      <path d="M339.234 476.118h-20.807c-4.163 0-7.536 3.374-7.536 7.536s3.373 7.536 7.536 7.536h20.807c4.163 0 7.536-3.374 7.536-7.536s-3.373-7.536-7.536-7.536zM235.191 444.907h-13.273v-23.676a7.535 7.535 0 0 0-7.536-7.536H201.11v-96.504c0-11.606-5.138-22.503-14.069-29.874l-58.758-48.964v-74.761c0-18.787-13.442-34.489-31.214-38.006v-6.072c0-21.365-17.382-38.748-38.748-38.748s-38.748 17.382-38.748 38.748v187.273c0 12.325 5.949 24.028 15.835 31.25l57.554 43.168.085.063c6.11 4.449 9.758 11.61 9.758 19.156v13.271H89.536A7.535 7.535 0 0 0 82 421.231v23.675H68.729a7.535 7.535 0 0 0-7.536 7.536v52.022A7.535 7.535 0 0 0 68.729 512a7.535 7.535 0 0 0 7.536-7.536v-44.486h27.655c4.163 0 7.536-3.374 7.536-7.536s-3.373-7.536-7.536-7.536h-6.848v-16.139H206.846v16.139h-69.273c-4.163 0-7.536 3.374-7.536 7.536s3.373 7.536 7.536 7.536h90.082v44.486c0 4.162 3.373 7.536 7.536 7.536s7.536-3.374 7.536-7.536v-52.022a7.535 7.535 0 0 0-7.536-7.535zM113.213 163.592v65.177a38.776 38.776 0 0 0-13.272-2.347c-.966 0-1.921.047-2.87.118v-85.387c9.371 3.155 16.142 12.018 16.142 22.439zm-11.244 205.524l-57.592-43.195c-6.092-4.451-9.73-11.605-9.73-19.136V119.513c0-13.055 10.62-23.675 23.675-23.675s23.675 10.621 23.675 23.675v111.331c-12.354 6.484-20.806 19.433-20.806 34.327 0 11.607 5.139 22.505 14.095 29.895l59.016 48.743a7.535 7.535 0 0 0 10.61-1.012 7.534 7.534 0 0 0-1.011-10.61l-59.019-48.745a23.619 23.619 0 0 1-8.618-18.273c0-13.055 10.62-23.675 23.675-23.675 5.623 0 11.072 2.005 15.406 5.696l.603.502.01.009 61.461 51.216a23.622 23.622 0 0 1 8.618 18.273v96.504h-68.159v-13.271c.002-12.33-5.945-24.028-15.909-31.307z"/>
      <path d="M193.575 476.118h-20.807c-4.163 0-7.536 3.374-7.536 7.536s3.373 7.536 7.536 7.536h20.807c4.163 0 7.536-3.374 7.536-7.536s-3.373-7.536-7.536-7.536zM294.751 298.845a7.535 7.535 0 0 0-7.536-7.536h-23.676v-51.118l20.717-15.537a55.674 55.674 0 0 0 17.61 2.872c11.868 0 23.643-3.773 33.395-11.086 15.817-11.863 24.184-31.45 21.836-51.117a7.538 7.538 0 0 0-4.53-6.04c-18.223-7.763-39.369-5.215-55.188 6.648-14.624 10.969-22.873 28.541-22.178 46.673l-11.664 8.748v-43.127c29.751-18.958 48.061-52.064 48.061-87.456 0-36.865-19.858-71.257-51.822-89.754a7.536 7.536 0 0 0-7.55 0c-31.966 18.499-51.822 52.891-51.822 89.754 0 35.392 18.311 68.497 48.061 87.455v43.13l-11.666-8.749c.694-18.133-7.554-35.704-22.178-46.673-15.819-11.863-36.963-14.411-55.188-6.648a7.539 7.539 0 0 0-4.53 6.04c-2.348 19.667 6.019 39.254 21.836 51.117 9.753 7.314 21.527 11.086 33.395 11.086 5.928 0 11.877-.96 17.61-2.872l20.719 15.538v51.116h-23.677a7.535 7.535 0 0 0-7.536 7.536 7.535 7.535 0 0 0 7.536 7.536h62.425a7.536 7.536 0 0 0 7.54-7.536zm11.674-120.856c10.319-7.739 23.754-10.036 35.992-6.374.089 12.772-5.879 25.027-16.198 32.766-10.32 7.738-23.753 10.038-35.992 6.375-.089-12.772 5.878-25.028 16.198-32.767zm-120.641 26.393c-10.319-7.739-16.287-19.994-16.198-32.766 12.241-3.663 25.673-1.365 35.992 6.374 10.319 7.739 16.287 19.995 16.198 32.767-12.239 3.663-25.672 1.364-35.992-6.375zm29.693-113.614c0-30.026 15.42-58.135 40.525-74.397 25.105 16.261 40.525 44.371 40.525 74.397 0 26.89-12.373 52.235-32.989 68.918v-43.454l16.641-8.319a7.535 7.535 0 0 0 3.37-10.11 7.536 7.536 0 0 0-10.109-3.371l-9.901 4.95V69.96c0-4.162-3.373-7.536-7.536-7.536s-7.536 3.374-7.536 7.536v8.616l-9.902-4.952a7.536 7.536 0 0 0-10.111 3.37 7.534 7.534 0 0 0 3.37 10.111l16.644 8.323v64.258c-20.617-16.682-32.991-42.028-32.991-68.918z"/>
    </symbol>

    <symbol id="recycling" viewBox="0 0 511.999 511.999">
      <g fill="#4fd255">
        <path d="M113.093 140.212l10.211 333.655h10.208v30.619h244.98v-30.619h10.207l10.206-333.655zM113.095 89.175c0-22.549 18.28-40.83 40.83-40.83h204.149c22.549 0 40.83 18.28 40.83 40.83v30.622H113.095V89.175z"/>
      </g>
      <path d="M358.074 48.345h-30.622c22.549 0 40.83 18.28 40.83 40.83v30.622h30.622V89.175c0-22.55-18.28-40.83-40.83-40.83z" fill="#2cb855"/>
      <path fill="#4fd255" d="M92.684 109.586h326.644v30.623H92.684z"/>
      <path fill="#2cb855" d="M388.7 109.586h30.623v30.623H388.7z"/>
      <circle cx="255.399" cy="281.098" r="93.045" fill="#dcf3f4"/>
      <path d="M368.28 140.212H118.439a5.181 5.181 0 0 0-5.179 5.343l.633 20.272a5.18 5.18 0 0 0 5.179 5.019H362a5.182 5.182 0 0 1 5.179 5.34l-8.952 292.656a5.181 5.181 0 0 1-5.179 5.023 5.182 5.182 0 0 0-5.182 5.182v20.256a5.183 5.183 0 0 0 5.182 5.182h20.261a5.182 5.182 0 0 0 5.182-5.182v-20.256a5.183 5.183 0 0 1 5.182-5.182 5.18 5.18 0 0 0 5.179-5.023l9.889-323.291a5.181 5.181 0 0 0-5.179-5.34H368.28v.001z" fill="#2cb855"/>
      <path d="M429.528 132.698h-2.693V109.59a7.514 7.514 0 0 0-7.514-7.514h-12.903V89.175c0-26.657-21.688-48.344-48.344-48.344h-53.73V27.928c0-15.4-12.529-27.928-27.929-27.928h-40.83c-15.4 0-27.928 12.529-27.928 27.928V40.83h-53.731c-26.657 0-48.344 21.687-48.344 48.344v12.9H92.679a7.513 7.513 0 0 0-7.514 7.514l-.001 23.109h-2.692a7.514 7.514 0 1 0 0 15.028h23.333l9.988 326.37a7.514 7.514 0 0 0 7.511 7.285h2.694v23.104a7.514 7.514 0 0 0 7.514 7.514h244.98a7.514 7.514 0 0 0 7.514-7.514V481.38h2.693a7.514 7.514 0 0 0 7.511-7.285l9.983-326.37h23.335a7.514 7.514 0 1 0 0-15.027zM222.684 27.928c0-7.113 5.787-12.9 12.9-12.9h40.83c7.113 0 12.9 5.787 12.9 12.9V40.83h-66.631l.001-12.902zM120.609 89.175c0-18.371 14.945-33.316 33.316-33.316h204.149c18.371 0 33.316 14.946 33.316 33.316v12.9H120.61v-12.9zm260.802 377.178h-23.335a7.514 7.514 0 1 0 0 15.028h12.901v15.59H141.025v-15.59h184.034a7.514 7.514 0 1 0 0-15.028H133.551l-.04-.002-.04.002h-2.88l-9.751-318.626h21.802a7.514 7.514 0 0 0 7.514-7.514v-.001a7.514 7.514 0 0 0-7.514-7.514h-42.451v-15.594H411.805v15.594H175.66a7.514 7.514 0 0 0-7.514 7.514v.001a7.514 7.514 0 0 0 7.514 7.514h215.498l-9.747 318.626z"/>
      <path d="M174.518 271.276a7.514 7.514 0 0 0 10.264 2.75l2.904-1.677a69.814 69.814 0 0 0-.45 7.786c0 18.367 7.152 35.634 20.14 48.62 13.404 13.404 31.013 20.107 48.621 20.107a69.05 69.05 0 0 0 6.635-.32l16.167 9.335a7.513 7.513 0 0 0 10.264-2.75 7.513 7.513 0 0 0-2.75-10.264l-2.917-1.684a68.35 68.35 0 0 0 21.22-14.424c12.987-12.986 20.14-30.254 20.14-48.62 0-14.554-4.506-28.409-12.834-40v-18.62a7.514 7.514 0 1 0-15.028 0v3.346c-26.898-19.927-65.151-17.713-89.519 6.654a68.727 68.727 0 0 0-14.014 20.205l-16.094 9.292a7.515 7.515 0 0 0-2.749 10.264zm43.486-29.135c10.476-10.477 24.234-15.713 37.994-15.713a53.72 53.72 0 0 1 28.211 7.988h-.215a7.514 7.514 0 1 0 0 15.028h16.095c14.588 20.939 12.566 50.021-6.096 68.684a53.49 53.49 0 0 1-12.513 9.304l.112-.195a7.513 7.513 0 0 0-2.75-10.264 7.512 7.512 0 0 0-10.264 2.75l-8.033 13.914c-15.233 1.282-30.911-3.88-42.541-15.51-10.862-10.862-16.077-25.255-15.676-39.519l.08.138a7.51 7.51 0 0 0 10.264 2.75 7.514 7.514 0 0 0 2.75-10.264l-8.053-13.949a53.477 53.477 0 0 1 10.635-15.142z"/>
    </symbol>

    <symbol id="herbs" viewBox="0 0 512 512">
      <path d="M256 364.064c-12.332-21.309-35.357-35.656-61.748-35.656s-49.416 14.347-61.748 35.656c12.332 21.308 35.357 35.656 61.748 35.656s49.416-14.348 61.748-35.656z" fill="#4fd255"/>
      <path d="M256 364.064a71.703 71.703 0 0 0-11.876-15.281c-12.856 12.598-30.449 20.376-49.872 20.376s-37.016-7.777-49.871-20.376a71.64 71.64 0 0 0-11.876 15.281c12.332 21.309 35.357 35.656 61.748 35.656s49.415-14.348 61.747-35.656z" fill="#2cb855"/>
      <path d="M379.497 435.376c-12.332-21.308-35.357-35.656-61.748-35.656s-49.416 14.347-61.748 35.656c12.332 21.309 35.357 35.656 61.748 35.656 26.39 0 49.416-14.347 61.748-35.656z" fill="#4fd255"/>
      <path d="M379.497 435.376a71.703 71.703 0 0 0-11.876-15.281c-12.856 12.598-30.449 20.375-49.871 20.375s-37.016-7.777-49.872-20.375a71.64 71.64 0 0 0-11.876 15.281c12.332 21.309 35.357 35.656 61.748 35.656 26.389 0 49.415-14.347 61.747-35.656z" fill="#2cb855"/>
      <path d="M304.439 42.638C297.791 22.239 278.616 7.499 256 7.499c-22.69 0-41.915 14.836-48.504 35.336v66.54h96.945V42.638h-.002z" fill="#ffd347"/>
      <path d="M256 7.499c-5.32 0-10.444.825-15.265 2.338 15.675 4.919 28.09 17.201 33.175 32.801v66.738h30.531V42.638C297.791 22.239 278.616 7.499 256 7.499z" fill="#ffbe31"/>
      <path d="M337.501 38.062c-34.018 0-63.981 17.369-81.502 43.723v68.342h81.502V38.062z" fill="#ff405d"/>
      <path d="M337.501 38.062a97.74 97.74 0 0 0-29.724 4.608v107.456h29.724V38.062z" fill="#e83b56"/>
      <path d="M267.992 107.067c-12.293-39.96-49.501-69.005-93.493-69.005v112.064h93.493v-43.059z" fill="#ff657b"/>
      <path d="M255.998 123.279l.001.011c-21.901-32.946-59.35-54.663-101.875-54.663v122.251c0 56.265 45.612 101.875 101.875 101.875s101.875-45.612 101.875-101.875V68.627c-42.521-.001-79.974 21.71-101.876 54.652z" fill="#e83b56"/>
      <path d="M276.373 190.767c-.06-67.467-54.769-122.14-122.25-122.14v122.251c0 56.265 45.612 101.875 101.875 101.875 6.977 0 13.791-.705 20.375-2.042v-99.944z" fill="#ff405d"/>
      <path d="M327.313 72.481v118.396c0 51.07-37.579 93.361-86.595 100.735 4.985.75 10.087 1.141 15.282 1.141 56.264 0 101.875-45.612 101.875-101.875V68.626c-10.553 0-20.793 1.34-30.562 3.855z" fill="#cf354e"/>
      <path d="M385.987 431.623c-14.064-24.302-40.211-39.399-68.239-39.399-20.389 0-39.778 7.995-54.249 21.705v-49.864V330.813h12.876a7.5 7.5 0 0 0 0-14.998h-12.876V299.99c56.825-3.867 101.875-51.324 101.875-109.113V76.125h2.688a7.5 7.5 0 0 0 0-14.998h-10.187c-4.328 0-8.621.227-12.874.648V45.562h2.686a7.5 7.5 0 0 0 0-14.998H337.499a105.45 105.45 0 0 0-28.221 3.844C299.924 13.595 279.243 0 256 0c-23.264 0-43.917 13.577-53.272 34.385a105.57 105.57 0 0 0-28.225-3.822H164.312a7.5 7.5 0 0 0 0 14.998h2.689v16.211c-4.238-.419-8.53-.647-12.876-.647h-10.188a7.5 7.5 0 0 0 0 14.998h2.689v114.751c0 57.789 45.052 105.246 101.875 109.113v23.295l-.001.029.001.029v19.272c-14.471-13.711-33.859-21.706-54.249-21.706-28.027 0-54.175 15.097-68.239 39.399a7.499 7.499 0 0 0 0 7.513c14.064 24.302 40.212 39.399 68.239 39.399 20.389 0 39.778-7.995 54.249-21.706v83.114h-12.877a7.5 7.5 0 0 0 0 14.998h12.877v20.874a7.5 7.5 0 0 0 14.998 0v-28.354l.001-.021-.001-.021v-19.277c14.471 13.711 33.861 21.706 54.249 21.706 28.027 0 54.175-15.097 68.239-39.4a7.488 7.488 0 0 0 0-7.507zM271.235 94.273a105.45 105.45 0 0 0-6.251-12.225c15.537-20.921 39.176-34.039 65.017-36.176v18.281a129.382 129.382 0 0 0-58.766 30.12zM256 14.999c16.866 0 31.914 9.626 39.091 24.469a105.158 105.158 0 0 0-39.115 29.749c-5.375-6.577-11.529-12.525-18.342-17.636a105.456 105.456 0 0 0-20.718-12.128c7.175-14.84 22.203-24.454 39.084-24.454zm-74.001 30.867c27.674 2.248 52.178 16.861 67.271 39.214a7.471 7.471 0 0 0 1.027 1.568 90.801 90.801 0 0 1 9.45 19.345 130.403 130.403 0 0 0-3.787 4.567c-18.266-23.11-44.221-39.868-73.962-46.406V45.866zm-20.375 145.011V76.367c59.795 3.874 107.252 53.753 107.252 114.509v13.794a7.5 7.5 0 0 0 14.998 0v-13.794c0-24.654-6.912-47.725-18.901-67.376 20.128-27.73 51.356-44.92 85.402-47.132v114.508c0 42.34-28.026 78.255-66.501 90.173v-43.427a7.5 7.5 0 0 0-14.998 0v46.748a94.805 94.805 0 0 1-12.876.882c-52.039.001-94.376-42.336-94.376-94.375zm32.628 201.344c-21.211 0-41.096-10.685-52.905-28.157 11.809-17.472 31.694-28.157 52.905-28.157 17.98 0 35.003 7.679 46.967 20.659h-56.532a7.5 7.5 0 0 0 0 14.998h56.528c-11.963 12.978-28.986 20.657-46.963 20.657zm123.496 71.315c-17.98 0-35.003-7.679-46.967-20.659h56.531a7.5 7.5 0 0 0 0-14.998h-56.529c11.962-12.977 28.985-20.655 46.964-20.655 21.211 0 41.096 10.685 52.905 28.156-11.808 17.47-31.692 28.156-52.904 28.156z"/>
    </symbol>

    <symbol id="open-air-production" viewBox="0 0 512 512">
      <path d="M255.996 7.501c-28.585 16.543-47.831 47.431-47.831 82.833 0 35.403 19.246 66.29 47.831 82.833 28.585-16.543 47.831-47.431 47.831-82.833 0-35.403-19.246-66.291-47.831-82.833z" fill="#4fd255"/>
      <path d="M255.995 7.501a96.118 96.118 0 0 0-15.531 11.205c19.803 17.521 32.301 43.106 32.301 71.628s-12.497 54.107-32.301 71.628a96.014 96.014 0 0 0 15.531 11.205c28.585-16.543 47.831-47.431 47.831-82.833s-19.245-66.291-47.831-82.833z" fill="#2cb855"/>
      <path d="M444.448 138.446c-26.905-19.154-62.993-23.863-95.209-9.185-32.216 14.678-52.345 44.998-55.548 77.869 26.905 19.154 62.993 23.863 95.209 9.185 32.217-14.677 52.345-44.997 55.548-77.869z" fill="#4fd255"/>
      <path d="M444.448 138.446a96.041 96.041 0 0 0-16.636-9.487c-7.734 25.285-25.835 47.265-51.79 59.09-25.955 11.825-54.419 11.06-78.574.302a96.013 96.013 0 0 0-3.758 18.779c26.905 19.154 62.993 23.863 95.209 9.185 32.218-14.677 52.346-44.997 55.549-77.869z" fill="#2cb855"/>
      <path d="M67.547 138.446c26.905-19.154 62.993-23.863 95.209-9.185 32.217 14.678 52.345 44.998 55.548 77.869-26.905 19.154-62.993 23.863-95.209 9.185-32.216-14.677-52.345-44.997-55.548-77.869z" fill="#4fd255"/>
      <path d="M67.547 138.446a96.041 96.041 0 0 1 16.636-9.487c7.734 25.285 25.835 47.265 51.79 59.09s54.419 11.06 78.574.302a96.013 96.013 0 0 1 3.758 18.779c-26.905 19.154-62.993 23.863-95.209 9.185-32.217-14.677-52.346-44.997-55.549-77.869z" fill="#2cb855"/>
      <circle cx="255.999" cy="380.25" r="124.25" fill="#67d5ff"/>
      <g fill="#4fd255">
        <path d="M173.167 400.958h-39.689a123.435 123.435 0 0 0 14.899 41.417h24.791c11.437 0 20.709-9.272 20.709-20.708-.001-11.438-9.273-20.709-20.71-20.709zM173.167 318.126h-24.791a123.435 123.435 0 0 0-14.899 41.417h39.689c11.437 0 20.709-9.272 20.709-20.709.001-11.437-9.271-20.708-20.708-20.708zM235.291 297.415c0 11.437 9.271 20.708 20.708 20.708l20.71.002c11.437 0 20.708 9.271 20.708 20.708s-9.272 20.708-20.708 20.708h-41.417c-11.437 0-20.708 9.272-20.708 20.709s9.272 20.708 20.708 20.708l82.835-.002c11.437 0 20.708 9.272 20.708 20.709s-9.271 20.708-20.708 20.708l-20.709.002c-11.437 0-20.708 9.272-20.708 20.709s9.271 20.708 20.708 20.708h27.272c33.486-22.259 55.561-60.321 55.561-103.544s-22.075-81.285-55.561-103.544h-68.691c-11.436.002-20.708 9.274-20.708 20.711z"/>
      </g>
      <path d="M256.001 256c-7.057 0-13.974.598-20.71 1.728 58.762 9.861 103.54 60.958 103.54 122.522s-44.778 112.661-103.54 122.522a125.092 125.092 0 0 0 20.71 1.728c68.621 0 124.25-55.629 124.25-124.25S324.622 256 256.001 256z" fill="#4dcefd"/>
      <path d="M380.149 375.428c-.033-.861-.073-1.72-.123-2.576-.025-.416-.05-.832-.079-1.247-.06-.873-.13-1.743-.209-2.61-.031-.35-.059-.7-.093-1.049-.118-1.204-.25-2.403-.403-3.596-.015-.114-.033-.226-.048-.339a122.502 122.502 0 0 0-.466-3.231c-.057-.363-.12-.725-.18-1.087a122.453 122.453 0 0 0-1.222-6.321c-.062-.28-.119-.562-.183-.841a122.862 122.862 0 0 0-.849-3.497c-.035-.135-.074-.268-.109-.403a117.609 117.609 0 0 0-.837-3.029c-.093-.321-.19-.64-.286-.96-.252-.845-.513-1.686-.783-2.523-.102-.318-.204-.636-.309-.952-.314-.948-.639-1.89-.975-2.828-.061-.17-.118-.341-.18-.51a125.202 125.202 0 0 0-1.292-3.401c-.044-.111-.09-.22-.135-.33-.395-.987-.803-1.967-1.223-2.941-.112-.261-.227-.52-.341-.78a122.9 122.9 0 0 0-1.159-2.561c-.112-.24-.223-.481-.336-.72-.49-1.035-.992-2.063-1.51-3.082l-.03-.061a125.604 125.604 0 0 0-1.739-3.29c-.038-.069-.078-.137-.116-.207a125.577 125.577 0 0 0-1.637-2.881l-.334-.565a124.047 124.047 0 0 0-1.594-2.616c-.094-.15-.186-.301-.281-.451a124.832 124.832 0 0 0-4.091-6.071l-.058-.079a120.69 120.69 0 0 0-2.071-2.793l-.279-.363a126.121 126.121 0 0 0-2.081-2.637l-.146-.181a125.19 125.19 0 0 0-7.349-8.243l-.206-.211a125.045 125.045 0 0 0-10.939-9.931l-.139-.112a124.778 124.778 0 0 0-9.042-6.616h-41.468c33.507 22.253 55.612 60.305 55.612 103.544a124.41 124.41 0 0 1-3.609 29.734 20.606 20.606 0 0 1 3.614 11.682c0 9.958-7.031 18.267-16.397 20.252a124.823 124.823 0 0 1-35.273 39.144 20.592 20.592 0 0 0 10.253 2.731h27.272l.004-.002a124.538 124.538 0 0 0 9.033-6.61l.15-.121a125.144 125.144 0 0 0 13.62-12.757l.002-.002c1.677-1.824 3.299-3.7 4.866-5.622l.148-.184c.704-.867 1.396-1.745 2.077-2.631l.284-.37c.7-.918 1.389-1.844 2.063-2.782l.065-.089a124.178 124.178 0 0 0 4.088-6.067l.283-.454c.541-.864 1.072-1.735 1.592-2.613.112-.19.225-.378.336-.569.556-.949 1.101-1.906 1.632-2.872l.121-.217a122.506 122.506 0 0 0 1.738-3.288l.03-.061a127.225 127.225 0 0 0 1.51-3.081c.113-.239.224-.479.335-.718.396-.85.783-1.705 1.16-2.565.114-.259.228-.517.34-.776.419-.973.826-1.951 1.221-2.936.045-.113.093-.224.138-.337a124.92 124.92 0 0 0 1.291-3.397c.062-.172.121-.346.182-.518.335-.935.659-1.876.973-2.821.105-.317.207-.635.309-.953.269-.836.529-1.675.781-2.519.096-.322.194-.643.287-.966.291-1.003.57-2.012.836-3.026.035-.135.074-.269.109-.404.3-1.159.582-2.326.849-3.498.064-.278.121-.559.183-.839a123.563 123.563 0 0 0 .777-3.806c.157-.836.305-1.676.445-2.518.06-.361.123-.723.18-1.085.169-1.073.325-2.15.466-3.231l.048-.339c.152-1.193.284-2.393.403-3.597.034-.349.062-.699.093-1.049a124.693 124.693 0 0 0 .288-3.857c.05-.856.09-1.715.123-2.576.014-.379.032-.757.043-1.137.036-1.224.059-2.452.059-3.685s-.023-2.461-.059-3.685c-.012-.378-.029-.756-.044-1.135z" fill="#2cb855"/>
      <path d="M448.795 132.336c-29.944-21.315-69.284-25.109-102.668-9.9-32.053 14.603-54.48 44.847-59.374 79.612L263.5 212.642V177.37c29.608-18.866 47.832-51.813 47.832-87.036 0-36.686-19.762-70.914-51.575-89.324a7.496 7.496 0 0 0-7.514 0c-31.813 18.41-51.575 52.638-51.575 89.324 0 35.223 18.223 68.17 47.831 87.036v35.273l-23.255-10.595c-4.895-34.765-27.321-65.009-59.374-79.612-33.385-15.21-72.725-11.416-102.668 9.901a7.498 7.498 0 0 0-3.115 6.837c3.565 36.583 26.518 68.757 59.904 83.966 13.577 6.186 28.134 9.228 42.649 9.228 19.752 0 39.418-5.643 56.392-16.667l29.469 13.426v19.59c-61.689 3.479-112.163 49.592-122.362 109.275-.021.098-.033.199-.049.298a132.053 132.053 0 0 0 .002 43.932c.016.095.028.191.047.284a130.799 130.799 0 0 0 15.373 42.881c.225.512.508.991.837 1.435C165.26 485.786 207.624 512 256.001 512c26.589 0 51.358-7.925 72.084-21.525.511-.26.99-.573 1.426-.939 35.108-23.691 58.24-63.837 58.24-109.286 0-45.436-23.119-85.573-58.211-109.267a7.487 7.487 0 0 0-1.477-.973c-18.759-12.304-40.829-19.954-64.561-21.293v-19.591l29.466-13.425c16.975 11.025 36.637 16.667 56.392 16.667 14.512 0 29.073-3.043 42.648-9.228 33.385-15.209 56.339-47.383 59.904-83.966a7.505 7.505 0 0 0-3.117-6.838zM215.668 90.333c0-29.882 15.346-57.855 40.331-74.04 24.985 16.184 40.332 44.158 40.332 74.04 0 26.762-12.315 51.985-32.832 68.588v-43.245l16.561-8.278a7.501 7.501 0 0 0-6.707-13.418l-9.854 4.925v-29.28c0-4.143-3.358-7.5-7.5-7.5s-7.5 3.357-7.5 7.5V78.2l-9.855-4.929a7.5 7.5 0 0 0-6.709 13.417l16.564 8.284v63.949c-20.516-16.602-32.831-41.826-32.831-68.588zM126.209 209.49c-27.192-12.388-46.287-37.95-50.656-67.398 25.086-16.028 56.905-18.396 84.098-6.006 24.352 11.095 42.201 32.758 48.803 58.313l-58.194-26.513-.671-18.508c-.15-4.14-3.651-7.357-7.767-7.224a7.5 7.5 0 0 0-7.224 7.767l.401 11.012-7.803-3.555a7.502 7.502 0 0 0-9.935 3.716 7.499 7.499 0 0 0 3.716 9.934l26.646 12.14-8.568 6.925a7.5 7.5 0 0 0 9.428 11.666l14.4-11.638 39.353 17.929c-23.615 11.786-51.675 12.535-76.027 1.44zm26.634 116.134h20.322c7.283 0 13.209 5.926 13.209 13.209s-5.925 13.208-13.209 13.208h-30.463a115.918 115.918 0 0 1 10.141-26.417zm-10.141 82.833h30.463c7.283 0 13.209 5.926 13.209 13.209s-5.925 13.208-13.209 13.208h-20.322a115.89 115.89 0 0 1-10.141-26.417zm230.047-28.208c0 39.77-19.993 74.953-50.452 96.043h-24.881c-7.283 0-13.208-5.925-13.208-13.208s5.925-13.209 13.209-13.209l20.709-.002c15.554 0 28.208-12.654 28.208-28.208 0-15.555-12.654-28.209-28.208-28.209l-82.835.002c-7.283 0-13.209-5.925-13.209-13.208s5.925-13.209 13.209-13.209h3.959c4.142 0 7.5-3.357 7.5-7.5s-3.358-7.5-7.5-7.5h-3.959c-15.554 0-28.209 12.654-28.209 28.209 0 15.554 12.654 28.208 28.209 28.208l82.835-.002c7.283 0 13.208 5.926 13.208 13.209s-5.925 13.208-13.209 13.208l-20.709.002c-15.554 0-28.208 12.654-28.208 28.209 0 14.081 10.371 25.784 23.876 27.875a116.273 116.273 0 0 1-37.085 6.04c-38.305 0-72.359-18.545-93.661-47.126h10.827c15.554 0 28.209-12.654 28.209-28.208 0-15.555-12.654-28.209-28.209-28.209H140c-.49-4.337-.751-8.742-.751-13.207 0-4.466.261-8.871.751-13.208h33.165c15.554 0 28.209-12.654 28.209-28.208 0-15.555-12.654-28.209-28.209-28.209h-10.827c21.301-28.581 55.355-47.126 93.66-47.126 12.58 0 24.699 2.008 36.061 5.707h-36.062c-15.554 0-28.209 12.654-28.209 28.208 0 15.555 12.654 28.209 28.208 28.209l20.71.002c7.283 0 13.208 5.926 13.208 13.209s-5.925 13.208-13.208 13.208h-3.966c-4.142 0-7.5 3.357-7.5 7.5s3.358 7.5 7.5 7.5h3.966c15.554 0 28.208-12.654 28.208-28.208 0-15.555-12.654-28.209-28.208-28.209l-20.71-.002c-7.283 0-13.209-5.926-13.209-13.209s5.925-13.208 13.209-13.208h66.3c30.46 21.091 50.453 56.274 50.453 96.044zm13.039-170.759c-24.352 11.094-52.412 10.346-76.027-1.44l39.353-17.929 14.4 11.638a7.467 7.467 0 0 0 4.71 1.667 7.499 7.499 0 0 0 4.718-13.333l-8.568-6.925 26.646-12.14a7.5 7.5 0 1 0-6.219-13.65l-7.802 3.555.399-11.011a7.5 7.5 0 0 0-7.224-7.767c-4.123-.117-7.616 3.084-7.767 7.224l-.671 18.507-58.195 26.513c6.602-25.554 24.451-47.218 48.804-58.313 27.192-12.389 59.012-10.021 84.098 6.006-4.368 29.448-23.463 55.01-50.655 67.398z"/>
    </symbol>

    <symbol id="laundry" viewBox="0 0 511.999 511.999">
      <path d="M393.684 135.959L355.4 63.414l-38.284 72.546a43.289 43.289 0 0 0-5.203 20.64c0 24.017 19.47 43.487 43.487 43.487s43.487-19.47 43.487-43.487a43.304 43.304 0 0 0-5.203-20.641z" fill="#67d5ff"/>
      <path d="M393.684 135.959L355.4 63.414l-18.637 35.317 19.646 37.229a43.289 43.289 0 0 1 5.203 20.64c0 17.346-10.159 32.316-24.849 39.296a43.312 43.312 0 0 0 18.637 4.191c24.017 0 43.487-19.47 43.487-43.487a43.293 43.293 0 0 0-5.203-20.641z" fill="#4dcefd"/>
      <path d="M467.226 374.039H328.42a37.193 37.193 0 0 0 2.13-12.427 37.127 37.127 0 0 0-8.889-24.16l-61.747-74.098c-6.837-8.284-17.183-13.565-28.763-13.565H94.454l.003 99.398h37.294c12.394 0 23.375 6.049 30.152 15.356l51.554 68.733c6.78 9.282 17.746 15.311 30.12 15.311h223.65c20.586 0 37.274-16.688 37.274-37.275-.001-20.584-16.689-37.273-37.275-37.273z" fill="#ffd2ba"/>
      <g fill="#ffbc99">
        <path d="M499.725 393.066c-6.388 11.353-18.544 19.026-32.499 19.026H326.67c13.039-8.662 22.554-22.227 25.867-38.051h-24.14c-5.119 14.474-18.917 24.845-35.144 24.845-3.618 0-7.117-.516-10.425-1.477a37.308 37.308 0 0 1-18.337-12.087l-48.882-59.186-.244-.088c-6.837-8.161-17.098-13.356-28.578-13.356h-92.33v36.496h37.294c12.394 0 23.375 6.049 30.152 15.356l51.554 68.733c6.78 9.282 17.746 15.311 30.119 15.311h223.65c20.586 0 37.274-16.688 37.274-37.275a37.087 37.087 0 0 0-4.775-18.247z"/>
        <path d="M270.201 352.786a7.16 7.16 0 0 0-1.042 10.144l9.103 11.022a19.374 19.374 0 0 0 14.991 7.077c8.35 0 15.484-5.298 18.219-12.709.055-.162.112-.323.171-.482a19.342 19.342 0 0 0 1.022-6.223c0-5.909-2.515-10.101-4.625-12.578-.041-.049-.082-.099-.124-.147l-8.663-10.396a7.16 7.16 0 0 0-9.978-1.002l-19.074 15.294z"/>
      </g>
      <path fill="#dcf3f4" d="M57.18 224.94h49.724v149.1H57.18z"/>
      <path fill="#b0cdcf" d="M57.18 336.76h49.619v37.39H57.18z"/>
      <path fill="#25739e" d="M7.5 200.09h62.13v198.8H7.5z"/>
      <path fill="#216486" d="M7.5 361.61h62.13v37.27H7.5z"/>
      <path d="M467.226 366.537H337.773c.178-1.619.277-3.261.277-4.926 0-10.633-3.793-20.941-10.628-28.961l-61.725-74.071c-8.544-10.353-21.136-16.291-34.547-16.291H114.401v-17.349a7.5 7.5 0 0 0-7.5-7.5H77.127v-17.351a7.5 7.5 0 0 0-7.5-7.5H7.5a7.5 7.5 0 0 0 0 15h54.627v109.081a7.5 7.5 0 0 0 15 0v-84.23h22.274v17.339l-.001.01.001.01v116.738H77.127v-9.677a7.5 7.5 0 0 0-15 0V391.385H7.5a7.5 7.5 0 0 0 0 15h62.127a7.5 7.5 0 0 0 7.5-7.5v-17.349h29.774a7.5 7.5 0 0 0 7.5-7.5v-17.35h17.349c9.489 0 18.494 4.587 24.089 12.271l.063.085 51.498 68.657c8.41 11.514 21.933 18.387 36.175 18.387h223.65c24.689 0 44.774-20.086 44.774-44.774.001-24.689-20.085-44.775-44.773-44.775zm0 74.55h-223.65c-9.471 0-18.467-4.574-24.119-12.311l-51.526-68.696c-8.411-11.518-21.932-18.394-36.18-18.394h-17.349v-84.398H231.15c8.918 0 17.293 3.95 23.001 10.866l61.8 74.161a29.772 29.772 0 0 1 7.099 19.296c0 16.417-13.356 29.774-29.774 29.774a29.7 29.7 0 0 1-22.98-10.84l-58.21-70.481a7.5 7.5 0 1 0-11.566 9.552l58.208 70.479c8.544 10.353 21.136 16.291 34.548 16.291 17.532 0 32.734-10.135 40.08-24.848h133.871c16.418 0 29.774 13.357 29.774 29.775-.001 16.417-13.357 29.774-29.775 29.774z"/>
      <path d="M39.852 274.637v-24.849a7.5 7.5 0 0 0-15 0v24.849a7.5 7.5 0 0 0 15 0zM355.402 207.585c28.114 0 50.986-22.873 50.986-50.987 0-8.43-2.104-16.787-6.087-24.172l-38.267-72.513a7.5 7.5 0 0 0-13.266 0l-38.25 72.481a51.085 51.085 0 0 0-6.104 24.204c.001 28.115 22.874 50.987 50.988 50.987zm-31.651-68.126l31.651-59.976 31.65 59.976.034.064a36.036 36.036 0 0 1 4.302 17.075c0 19.843-16.144 35.987-35.986 35.987-19.844 0-35.987-16.144-35.987-35.987a36.1 36.1 0 0 1 4.336-17.139z"/>
    </symbol>

    <symbol id="book" viewBox="0 0 511.999 511.999">
      <path d="M86.566 459.314c0-24.953 20.229-45.182 45.182-45.182l248.503.004c24.954 0 45.182-20.229 45.182-45.182V52.681c0-24.953-20.229-45.182-45.182-45.182H131.75c-24.953 0-45.182 20.229-45.182 45.182l-.002 406.633z" fill="#ffd347"/>
      <path d="M380.251 7.499h-33.886c24.953 0 45.182 20.229 45.182 45.182v316.273c0 24.946-20.217 45.169-45.159 45.182l33.863.001c24.954 0 45.182-20.229 45.182-45.182V52.681c0-24.953-20.229-45.182-45.182-45.182z" fill="#ffbe31"/>
      <path d="M425.433 368.954c0 24.954-20.229 45.182-45.182 45.182l-248.503-.004c-24.954 0-45.182 20.229-45.182 45.182 0 24.954 20.229 45.182 45.182 45.182l248.503.002c24.954 0 45.182-20.229 45.182-45.182v-90.362z" fill="#dcf3f4"/>
      <path d="M391.546 412.713v46.603c0 24.95-20.223 45.176-45.172 45.182h33.877c24.953 0 45.182-20.229 45.182-45.182v-90.362c0 21.053-14.399 38.743-33.887 43.759z" fill="#b0cdcf"/>
      <path fill="#25739e" d="M199.52 301.18h135.55v33.886H199.52z"/>
      <path fill="#216486" d="M301.18 301.18h33.886v33.886H301.18z"/>
      <path d="M267.294 75.27c-31.184 18.047-52.18 51.742-52.18 90.363s20.996 72.317 52.18 90.363c31.184-18.047 52.18-51.742 52.18-90.363s-20.996-72.317-52.18-90.363z" fill="#4fd255"/>
      <path d="M267.294 75.27a104.729 104.729 0 0 0-16.942 12.224c21.604 19.114 35.237 47.025 35.237 78.14s-13.634 59.026-35.237 78.14a104.877 104.877 0 0 0 16.942 12.224c31.184-18.047 52.18-51.742 52.18-90.363s-20.996-72.319-52.18-90.365z" fill="#2cb855"/>
      <path d="M263.539 262.489c.018.011.038.018.057.028.268.152.543.291.83.41.014.006.029.01.043.015a7.283 7.283 0 0 0 1.026.328c.222.055.448.099.677.134.077.012.154.026.231.035.293.035.59.058.893.058s.599-.023.893-.058c.077-.009.154-.023.231-.035.229-.035.455-.079.677-.134.074-.019.149-.037.223-.057.274-.077.543-.165.803-.271l.042-.015c.287-.119.563-.258.83-.41.018-.01.038-.017.057-.028 34.495-19.962 55.923-57.074 55.923-96.854 0-39.779-21.428-76.892-55.923-96.854a7.496 7.496 0 0 0-7.514 0c-34.495 19.963-55.923 57.075-55.923 96.854.001 39.78 21.429 76.892 55.924 96.854zm3.756-178.436c27.668 17.743 44.68 48.606 44.68 81.582 0 29.884-13.97 58.031-37.18 76.251v-49.027l18.443-9.219a7.5 7.5 0 1 0-6.707-13.416l-11.736 5.867v-33.046c0-4.143-3.358-7.5-7.5-7.5s-7.5 3.357-7.5 7.5v10.458l-11.738-5.87a7.5 7.5 0 1 0-6.709 13.417l18.447 9.225v71.613c-23.21-18.221-37.18-46.368-37.18-76.251.001-32.979 17.012-63.841 44.68-81.584z"/>
      <path d="M380.251 0H131.75c-29.049 0-52.682 23.633-52.682 52.682l-.002 406.633v.007c.004 29.046 23.636 52.675 52.682 52.675l248.503.002c29.049 0 52.682-23.633 52.682-52.683V52.682C432.933 23.633 409.3 0 380.251 0zM94.066 422.533l.002-369.852C94.067 31.904 110.972 15 131.75 15h248.501c20.778 0 37.682 16.904 37.682 37.682v316.273c0 20.777-16.904 37.682-37.682 37.682l-248.503-.004a53.7 53.7 0 0 0-2.729.07c-.301.015-.598.048-.898.069-.599.041-1.2.078-1.793.139-.36.037-.714.092-1.072.136-.529.065-1.059.124-1.583.205-.376.058-.745.134-1.118.2-.498.088-.999.169-1.492.271-.387.08-.768.178-1.152.267-.472.109-.946.211-1.412.332-.389.101-.772.22-1.158.33-.453.129-.91.252-1.358.393-.386.121-.764.258-1.146.388-.44.15-.883.293-1.318.454-.379.14-.75.296-1.125.445-.428.17-.859.334-1.282.515-.373.16-.738.333-1.107.501-.415.189-.831.372-1.24.571-.366.178-.724.37-1.085.557-.401.207-.804.409-1.199.626-.358.197-.708.406-1.061.611-.387.224-.776.444-1.156.678-.35.215-.691.442-1.036.665-.372.24-.746.478-1.112.727-.339.232-.67.474-1.003.714-.359.258-.72.512-1.072.778-.328.248-.647.507-.969.762-.344.273-.691.544-1.028.825-.317.264-.625.539-.936.811-.329.288-.66.573-.982.869-.306.281-.602.571-.901.859-.313.301-.627.601-.932.909-.073.075-.152.147-.227.223zm323.867-16.797v53.58c0 20.778-16.904 37.683-37.682 37.683l-248.503-.002c-18.209 0-33.441-12.983-36.93-30.179h147.236a7.5 7.5 0 0 0 0-15H94.817c2.243-11.067 9.349-20.39 18.984-25.631a37.41 37.41 0 0 1 16.011-4.505 38.84 38.84 0 0 1 1.936-.049l248.503.004a53.7 53.7 0 0 0 2.729-.07c.302-.016.6-.048.901-.069.598-.041 1.198-.078 1.791-.139.36-.037.714-.092 1.072-.136.529-.065 1.06-.124 1.583-.205.376-.058.746-.134 1.12-.2.497-.088.997-.169 1.49-.271.389-.081.77-.179 1.156-.268.47-.108.943-.21 1.408-.331.392-.102.776-.221 1.164-.331.451-.129.905-.251 1.352-.391.389-.122.77-.261 1.155-.392.437-.149.876-.291 1.308-.451.385-.142.762-.3 1.142-.451.422-.168.847-.33 1.264-.508.378-.162.748-.338 1.122-.508.41-.187.822-.368 1.226-.565.369-.179.729-.373 1.093-.561.398-.205.799-.406 1.191-.622.361-.198.714-.409 1.07-.616.383-.222.769-.44 1.146-.672.353-.217.698-.446 1.046-.671.369-.239.74-.474 1.102-.721.342-.233.675-.478 1.011-.719.356-.256.715-.508 1.064-.773.331-.25.652-.51.977-.768.342-.271.686-.54 1.02-.819.32-.267.63-.544.944-.818.326-.286.654-.569.974-.862.307-.283.605-.574.906-.864.312-.3.625-.599.929-.906.072-.075.152-.146.226-.223z"/>
      <path d="M312.476 451.815H278.59c-4.142 0-7.5 3.357-7.5 7.5s3.358 7.5 7.5 7.5h33.886c4.142 0 7.5-3.357 7.5-7.5s-3.358-7.5-7.5-7.5zM131.751 105.364a7.5 7.5 0 0 0 7.5-7.5V52.682c0-4.143-3.358-7.5-7.5-7.5s-7.5 3.357-7.5 7.5v45.183a7.499 7.499 0 0 0 7.5 7.499zM131.751 376.456a7.5 7.5 0 0 0 7.5-7.5V134.4c0-4.143-3.358-7.5-7.5-7.5s-7.5 3.357-7.5 7.5v234.556c0 4.143 3.357 7.5 7.5 7.5zM199.521 342.567h135.547a7.5 7.5 0 0 0 7.5-7.5v-33.886a7.5 7.5 0 0 0-7.5-7.5H199.521a7.5 7.5 0 0 0-7.5 7.5v33.886a7.5 7.5 0 0 0 7.5 7.5zm7.5-33.885h120.547v18.886H207.021v-18.886z"/>
    </symbol>

    <symbol id="shirt" viewBox="0 0 512 512">
      <path d="M398.455 504.5H114.458l.001-260.334H19.79V102.168c0-52.282 42.383-94.666 94.666-94.666h283.089c52.282 0 94.666 42.383 94.666 94.666v141.998h-93.754l-.002 260.334z" fill="#dcf3f4"/>
      <path d="M397.544 7.502h-35.5c52.283 0 94.666 42.383 94.666 94.666v141.998h35.499V102.168c.001-52.283-42.382-94.666-94.665-94.666z" fill="#b0ccce"/>
      <path d="M350.665 7.5c0 52.284-42.384 94.668-94.668 94.668-52.283 0-94.668-42.384-94.668-94.668h189.336z" fill="#a8d3d6"/>
      <path d="M327.458 7.5c0 39.214-31.789 71.002-71.002 71.002-39.214 0-71.002-31.789-71.002-71.002h142.004z" fill="#84afb4"/>
      <g fill="#a8d3d6">
        <path d="M398.46 189.25h93.75v15.16h-93.75zM19.79 189.25h94.67v15.16H19.79z"/>
      </g>
      <g fill="#b0ccce">
        <path d="M398.456 125.834h-22.531c-7.415 0-13.426 6.011-13.426 13.426v351.815c0 7.415 6.011 13.426 13.426 13.426h22.531M78.502 244.166h35.957V125.834H93.926c-8.519 0-15.424 6.906-15.424 15.425v102.907z"/>
      </g>
      <g fill="#84afb4">
        <path d="M78.5 189.25h35.956v15.16H78.5zM456.72 189.25h35.486v15.16H456.72z"/>
      </g>
      <path d="M397.544.002h-70.046l-.04-.002H185.454l-.04.002h-70.958C58.121.002 12.29 45.833 12.29 102.168v141.998a7.5 7.5 0 0 0 7.5 7.5h87.167V504.5a7.5 7.5 0 0 0 7.5 7.5h283.997a7.5 7.5 0 0 0 7.5-7.5V251.666h86.255a7.5 7.5 0 0 0 7.5-7.5V102.168C499.71 45.833 453.879.002 397.544.002zm-78.026 15c-3.723 31.493-30.584 56-63.062 56s-59.339-24.507-63.062-56h126.124zM484.71 236.666h-78.755v-32.333h47.979c4.142 0 7.5-3.357 7.5-7.5s-3.358-7.5-7.5-7.5h-47.979v-63.5c0-4.143-3.358-7.5-7.5-7.5s-7.5 3.357-7.5 7.5V497H121.957V244.185l.001-.019-.001-.019V125.833c0-4.143-3.358-7.5-7.5-7.5s-7.5 3.357-7.5 7.5v63.5H58.065c-4.142 0-7.5 3.357-7.5 7.5s3.358 7.5 7.5 7.5h48.892v32.333H27.29V102.168c0-48.063 39.102-87.166 87.166-87.166h63.865c3.79 39.779 37.38 71 78.136 71s74.345-31.221 78.135-71h62.953c48.063 0 87.165 39.103 87.165 87.166v134.498z"/>
      <path d="M327.578 176.217c0-4.143-3.358-7.5-7.5-7.5s-7.5 3.357-7.5 7.5v6.34c-13.8-10.934-30.749-16.885-48.622-16.885-20.968 0-40.682 8.166-55.508 22.992a78.081 78.081 0 0 0-16.104 23.39l-19.05 10.999a7.5 7.5 0 0 0 7.5 12.99l5.512-3.183c-3.42 23.682 3.96 48.639 22.142 66.821 15.304 15.303 35.406 22.954 55.508 22.954a79.1 79.1 0 0 0 7.95-.409l19.091 11.022a7.497 7.497 0 0 0 10.245-2.745 7.5 7.5 0 0 0-2.745-10.245l-5.493-3.171a78.044 78.044 0 0 0 26.46-17.406c27.604-27.605 30.302-70.817 8.114-101.485v-21.979zm-18.721 112.857a63.184 63.184 0 0 1-18.422 12.812l2.143-3.712a7.5 7.5 0 0 0-12.99-7.5l-9.634 16.687c-18.197 1.711-36.996-4.383-50.9-18.286-13.873-13.874-19.968-32.622-18.294-50.782l2.118 3.669a7.497 7.497 0 0 0 10.245 2.745 7.5 7.5 0 0 0 2.745-10.245l-9.649-16.713a63.182 63.182 0 0 1 12.834-18.476c11.994-11.994 27.94-18.6 44.902-18.6 13.358 0 26.078 4.113 36.742 11.713h-4.287c-4.142 0-7.5 3.357-7.5 7.5s3.358 7.5 7.5 7.5h19.291c17.638 24.781 15.366 59.478-6.844 81.688z"/>
    </symbol>

    <symbol id="protect" viewBox="0 0 512 512">
      <circle cx="256" cy="131.75" r="124.25" fill="#67d5ff"/>
      <path d="M173.169 152.457H133.48a123.433 123.433 0 0 0 14.898 41.417h24.79c11.437 0 20.708-9.271 20.708-20.708.001-11.437-9.271-20.709-20.707-20.709z" fill="#4fd255"/>
      <path d="M256.002 7.5c-7.057 0-13.973.597-20.709 1.728 58.762 9.86 103.54 60.958 103.54 122.522s-44.778 112.661-103.54 122.522A125.08 125.08 0 0 0 256.002 256c68.621 0 124.249-55.629 124.249-124.25S324.622 7.5 256.002 7.5z" fill="#4dcefd"/>
      <path d="M235.293 48.915c0 11.437 9.271 20.708 20.708 20.708l20.71.002c11.437 0 20.708 9.271 20.708 20.708s-9.271 20.708-20.708 20.708h-41.417c-11.437 0-20.708 9.272-20.708 20.708 0 11.437 9.271 20.708 20.708 20.708l82.834-.002c11.437 0 20.708 9.271 20.708 20.708s-9.271 20.708-20.708 20.708l-20.709.002c-11.437 0-20.708 9.271-20.708 20.708s9.271 20.708 20.708 20.708h27.272c33.486-22.259 55.56-60.32 55.56-103.543s-22.075-81.285-55.56-103.543H256c-11.436.004-20.707 9.275-20.707 20.712z" fill="#4fd255"/>
      <path d="M380.149 126.929a128.753 128.753 0 0 0-.202-3.822c-.06-.873-.13-1.743-.208-2.611-.031-.35-.059-.7-.093-1.049-.118-1.204-.25-2.403-.403-3.597-.014-.113-.033-.226-.047-.339a121.902 121.902 0 0 0-.466-3.231c-.057-.362-.12-.723-.18-1.084a130.35 130.35 0 0 0-.663-3.654c-.177-.894-.364-1.785-.56-2.672-.062-.279-.119-.559-.182-.837a122.93 122.93 0 0 0-.849-3.498c-.035-.134-.073-.266-.108-.4a123.492 123.492 0 0 0-.838-3.035c-.092-.319-.189-.636-.284-.954-.253-.846-.513-1.688-.783-2.525-.102-.318-.204-.636-.309-.952-.314-.949-.64-1.893-.976-2.831-.06-.168-.117-.338-.178-.506a124.104 124.104 0 0 0-1.293-3.403l-.132-.324a125.298 125.298 0 0 0-1.562-3.717c-.38-.865-.769-1.725-1.167-2.58-.109-.235-.218-.47-.329-.703-.493-1.04-.997-2.075-1.518-3.099l-.023-.047a124.405 124.405 0 0 0-1.856-3.5c-.533-.969-1.08-1.929-1.638-2.882l-.332-.562c-.523-.883-1.057-1.76-1.602-2.629l-.271-.435a124.563 124.563 0 0 0-4.095-6.076l-.058-.079a126.067 126.067 0 0 0-2.072-2.794l-.276-.36c-.683-.889-1.378-1.77-2.084-2.64l-.144-.179a125.559 125.559 0 0 0-7.352-8.247l-.201-.206a125.044 125.044 0 0 0-10.945-9.937l-.134-.108a124.621 124.621 0 0 0-9.044-6.618h-41.47c33.507 22.252 55.612 60.305 55.612 103.543 0 10.253-1.268 20.206-3.609 29.736a20.611 20.611 0 0 1 3.613 11.68c0 9.957-7.03 18.266-16.395 20.252a124.818 124.818 0 0 1-35.274 39.145 20.586 20.586 0 0 0 10.251 2.73h27.272a124.621 124.621 0 0 0 9.044-6.618l.134-.108a125.336 125.336 0 0 0 10.945-9.936l.201-.206a124.476 124.476 0 0 0 7.352-8.247l.143-.177c.706-.87 1.4-1.75 2.083-2.639l.279-.364c.7-.919 1.39-1.846 2.065-2.784l.066-.09a123.587 123.587 0 0 0 4.09-6.07l.277-.443c.543-.867 1.076-1.742 1.598-2.623.111-.188.223-.375.333-.563.558-.953 1.105-1.913 1.638-2.882l.115-.206a122.801 122.801 0 0 0 1.74-3.292l.027-.054c.52-1.022 1.023-2.054 1.515-3.092.111-.235.22-.471.33-.706.398-.854.787-1.712 1.166-2.576.113-.257.226-.513.337-.771.419-.973.826-1.952 1.221-2.938.045-.113.093-.224.138-.337.447-1.124.876-2.257 1.291-3.397.062-.172.121-.346.182-.518.335-.936.66-1.876.973-2.822.105-.316.207-.634.309-.952.27-.838.531-1.679.783-2.524.095-.319.192-.637.285-.957.292-1.006.571-2.017.838-3.033.035-.134.074-.266.108-.4.3-1.159.582-2.326.849-3.498.063-.279.121-.56.183-.839a123.563 123.563 0 0 0 .777-3.806c.157-.836.305-1.676.445-2.518.06-.362.123-.723.18-1.086.169-1.073.325-2.15.466-3.231.015-.114.033-.226.047-.339.152-1.193.285-2.393.403-3.597.034-.349.062-.699.093-1.048a124.252 124.252 0 0 0 .287-3.858c.05-.856.09-1.715.123-2.576.014-.379.032-.757.043-1.136.036-1.224.059-2.452.059-3.685s-.023-2.461-.059-3.685c-.012-.381-.03-.759-.045-1.137z" fill="#2cb855"/>
      <g fill="#fea084">
        <path d="M121.396 165.258c0-17.155-13.907-31.062-31.062-31.062H69.628V256h51.769l-.001-90.742zM390.606 165.258c0-17.155 13.907-31.062 31.062-31.062h20.707V256h-51.769v-90.742z"/>
      </g>
      <path d="M421.666 121.395v115.672a30.988 30.988 0 0 0-10.355-1.775 30.934 30.934 0 0 0-20.133 7.408l-61.748 51.456c-6.903 5.697-11.304 14.319-11.304 23.969v113.914l82.832-.002v-31.078c0-10.328 5.041-19.479 12.797-25.127l57.278-42.961c7.735-5.65 12.759-14.788 12.759-25.1V121.395c0-17.155-13.907-31.062-31.062-31.062-17.157 0-31.064 13.907-31.064 31.062z" fill="#ffd2ba"/>
      <g fill="#ffbc99">
        <path d="M437.521 94.312c9.461 5.324 15.855 15.453 15.855 27.082v117.13c-7.219-10.866-18.522-18.795-31.709-21.556v20.116c12.061 4.266 20.704 15.764 20.704 29.287 0 3.016-.43 5.931-1.231 8.688a31.083 31.083 0 0 1-10.072 15.281l-49.322 40.735-.073.203c-6.801 5.698-11.13 14.248-11.13 23.815v76.942h30.414v-31.078c0-10.328 5.041-19.479 12.796-25.127l57.278-42.961c7.735-5.65 12.759-14.788 12.759-25.1V121.395c0-17.155-13.907-31.062-31.062-31.062a30.904 30.904 0 0 0-15.207 3.979z"/>
        <path d="M403.935 285.558a5.995 5.995 0 0 0 8.496.872l9.161-7.566a16.144 16.144 0 0 0 5.897-12.493c0-6.958-4.415-12.903-10.59-15.182a17.355 17.355 0 0 1-.402-.143 16.135 16.135 0 0 0-5.186-.852c-4.924 0-8.418 2.096-10.482 3.854-.04.034-.082.068-.123.104l-8.64 7.2a5.996 5.996 0 0 0-.839 8.357l12.708 15.849z"/>
      </g>
      <path fill="#dcf3f4" d="M297.421 421.67h124.25v41.44h-124.25z"/>
      <path fill="#b0cdcf" d="M390.601 421.75h31.16v41.35h-31.16z"/>
      <path fill="#25739e" d="M276.711 452.73h165.66v51.773h-165.66z"/>
      <path fill="#216486" d="M411.31 452.73h31.06v51.773h-31.06z"/>
      <path d="M90.335 121.394v115.672a31.013 31.013 0 0 1 10.355-1.775 30.939 30.939 0 0 1 20.134 7.408l61.748 51.456c6.903 5.697 11.304 14.319 11.304 23.969v113.914l-82.832-.002v-31.078c0-10.328-5.041-19.479-12.796-25.127L40.97 332.869c-7.735-5.65-12.759-14.788-12.759-25.1V121.394c0-17.155 13.907-31.062 31.062-31.062s31.062 13.907 31.062 31.062z" fill="#ffd2ba"/>
      <g fill="#ffbc99">
        <path d="M74.479 94.312c-9.461 5.324-15.855 15.454-15.855 27.082v117.13c7.218-10.866 18.522-18.795 31.71-21.556v20.116c-12.061 4.266-20.705 15.764-20.705 29.287a31.1 31.1 0 0 0 1.231 8.688 31.083 31.083 0 0 0 10.072 15.281l49.322 40.735.073.203c6.801 5.698 11.13 14.248 11.13 23.815v76.942h-30.414v-31.078c0-10.328-5.041-19.479-12.797-25.127L40.97 332.869c-7.735-5.65-12.759-14.788-12.759-25.099V121.394c0-17.155 13.907-31.062 31.062-31.062 5.527 0 10.711 1.45 15.206 3.98z"/>
        <path d="M108.066 285.557a5.995 5.995 0 0 1-8.496.872l-9.161-7.566a16.144 16.144 0 0 1-5.897-12.493c0-6.958 4.415-12.904 10.59-15.182.135-.045.269-.093.402-.143a16.13 16.13 0 0 1 5.186-.852c4.924 0 8.418 2.096 10.482 3.854.041.034.082.068.123.104l8.64 7.2a5.997 5.997 0 0 1 .84 8.357l-12.709 15.849z"/>
      </g>
      <path fill="#dcf3f4" d="M90.331 421.67h124.25v41.44H90.331z"/>
      <path fill="#b0cdcf" d="M90.241 421.75h31.16v41.35h-31.16z"/>
      <path fill="#25739e" d="M69.631 452.73h165.66v51.773H69.631z"/>
      <path fill="#216486" d="M69.631 452.73h31.06v51.773h-31.06z"/>
      <path d="M452.729 82.833c-21.263 0-38.561 17.299-38.561 38.562v6.039c-12.3 2.435-22.508 10.737-27.589 21.858a132.398 132.398 0 0 0 1.171-17.542c0-45.436-23.119-85.572-58.211-109.266a7.487 7.487 0 0 0-1.477-.973C307.341 7.919 282.58 0 256 0c-72.646 0-131.749 59.103-131.749 131.75 0 5.948.404 11.803 1.171 17.545-5.08-11.122-15.289-19.426-27.59-21.861v-6.039c0-21.263-17.299-38.562-38.562-38.562-21.264 0-38.563 17.299-38.563 38.562V307.77c0 12.266 5.92 23.913 15.76 31.1l57.277 42.961.085.063c6.081 4.428 9.712 11.555 9.712 19.064v13.207H90.335a7.5 7.5 0 0 0-7.5 7.5v23.562H69.627a7.5 7.5 0 0 0-7.5 7.5V504.5c0 4.142 3.357 7.5 7.5 7.5s7.5-3.358 7.5-7.5v-44.273h27.522c4.143 0 7.5-3.358 7.5-7.5s-3.357-7.5-7.5-7.5h-6.814v-16.062h96.022l.018.001.018-.001h13.189v16.062h-68.941c-4.143 0-7.5 3.358-7.5 7.5s3.357 7.5 7.5 7.5h89.65V504.5a7.5 7.5 0 0 0 15 0v-51.773a7.5 7.5 0 0 0-7.5-7.5h-13.209v-23.562a7.5 7.5 0 0 0-7.5-7.5h-13.207v-96.041c0-11.55-5.114-22.395-14.003-29.731l-58.476-48.728v-73.223a130.979 130.979 0 0 0 12.612 30.435c.227.518.513 1.001.845 1.45 22.912 38.961 65.273 65.172 113.647 65.172 26.588 0 51.357-7.924 72.083-21.524.512-.26.992-.574 1.428-.941 25.834-17.433 45.175-43.779 53.594-74.589v73.219l-58.447 48.706c-8.917 7.359-14.031 18.204-14.031 29.754v96.041H297.42a7.5 7.5 0 0 0-7.5 7.5v23.562h-13.209a7.5 7.5 0 0 0-7.5 7.5V504.5c0 4.142 3.357 7.5 7.5 7.5s7.5-3.358 7.5-7.5v-44.273h150.664V504.5c0 4.142 3.357 7.5 7.5 7.5s7.5-3.358 7.5-7.5v-51.773a7.5 7.5 0 0 0-7.5-7.5h-13.208v-23.562a7.5 7.5 0 0 0-7.5-7.5h-13.208v-13.207c0-7.509 3.631-14.636 9.712-19.064l.085-.063 57.201-42.905c9.916-7.243 15.836-18.89 15.836-31.156V121.395c-.001-21.264-17.299-38.562-38.564-38.562zm-310.025 77.124h30.463c7.283 0 13.209 5.925 13.209 13.209s-5.926 13.208-13.209 13.208h-20.322a116.011 116.011 0 0 1-10.141-26.417zm-28.808 5.301v64.868a38.58 38.58 0 0 0-13.207-2.336c-.962 0-1.912.048-2.856.117v-84.981c9.325 3.141 16.063 11.962 16.063 22.332zm72.478 152.866v96.041h-67.832v-13.207c0-12.27-5.92-23.913-15.837-31.157l-57.314-42.987c-6.063-4.429-9.684-11.548-9.684-19.043V121.395c0-12.992 10.57-23.562 23.563-23.562s23.562 10.57 23.562 23.562v110.796c-12.295 6.453-20.706 19.341-20.706 34.163 0 11.55 5.113 22.395 14.027 29.751l58.734 48.509a7.501 7.501 0 0 0 9.553-11.566l-58.737-48.511a23.505 23.505 0 0 1-8.577-18.184c0-12.992 10.57-23.563 23.563-23.563 5.595 0 11.018 1.995 15.331 5.669l61.776 51.479a23.513 23.513 0 0 1 8.578 18.186zm-24.034-116.75h10.826c15.555 0 28.209-12.654 28.209-28.208s-12.654-28.209-28.209-28.209h-33.165c-.49-4.337-.751-8.742-.751-13.207C139.252 67.374 191.624 15 256 15c12.58 0 24.698 2.008 36.059 5.707h-36.06c-15.554 0-28.208 12.654-28.208 28.208s12.654 28.208 28.207 28.208l20.711.003c7.283 0 13.209 5.925 13.209 13.208s-5.926 13.208-13.209 13.208h-41.417c-15.554 0-28.208 12.654-28.208 28.209s12.654 28.208 28.208 28.208l82.834-.002c7.283 0 13.209 5.925 13.209 13.209s-5.926 13.208-13.21 13.208l-20.708.002c-15.554 0-28.208 12.654-28.208 28.208 0 14.081 10.371 25.784 23.875 27.875a116.267 116.267 0 0 1-37.084 6.04c-38.304 0-72.358-18.544-93.66-47.125zm159.959 26.419h-24.881c-7.283 0-13.208-5.925-13.208-13.209 0-7.283 5.925-13.208 13.209-13.208l20.708-.002c15.555 0 28.209-12.654 28.209-28.208s-12.654-28.209-28.209-28.209l-82.834.002c-7.283 0-13.208-5.925-13.208-13.208s5.925-13.209 13.208-13.209h41.417c15.555 0 28.209-12.654 28.209-28.208s-12.654-28.208-28.208-28.208L256 62.123c-7.283 0-13.208-5.925-13.208-13.208S248.717 35.707 256 35.707h66.299c30.458 21.09 50.452 56.273 50.452 96.043s-19.994 74.952-50.452 96.043zm91.87-84.866v84.981a38.573 38.573 0 0 0-2.857-.117c-4.54 0-9.011.805-13.207 2.332v-64.865c-.001-10.37 6.738-19.191 16.064-22.331zm-.002 302.3H304.919v-16.062h13.189l.018.001.018-.001h96.022v16.062h.001zm62.125-137.457c0 7.495-3.62 14.614-9.76 19.1l-57.237 42.93c-9.917 7.244-15.837 18.887-15.837 31.157v13.207h-67.832v-96.041c0-7.058 3.127-13.685 8.606-18.207l61.811-51.509a23.562 23.562 0 0 1 15.268-5.617c12.992 0 23.563 10.57 23.563 23.563a23.504 23.504 0 0 1-8.58 18.186l-58.734 48.509a7.5 7.5 0 0 0 9.553 11.566l58.732-48.507c8.917-7.358 14.03-18.203 14.03-29.753 0-14.822-8.411-27.71-20.706-34.163V121.395c0-12.992 10.569-23.562 23.561-23.562s23.563 10.57 23.563 23.562V307.77h-.001z"/>
      <path d="M338.835 476.289h-20.708c-4.143 0-7.5 3.358-7.5 7.5s3.357 7.5 7.5 7.5h20.708a7.5 7.5 0 0 0 0-15zM193.874 476.289h-20.708c-4.143 0-7.5 3.358-7.5 7.5s3.357 7.5 7.5 7.5h20.708c4.143 0 7.5-3.358 7.5-7.5s-3.357-7.5-7.5-7.5z"/>
    </symbol>

    <symbol id="error" viewBox="0 0 512 512">
      <path d="M256.002 503.671c136.785 0 247.671-110.886 247.671-247.672S392.786 8.329 256.002 8.329 8.33 119.215 8.33 256.001s110.886 247.67 247.672 247.67z" fill="#ff6465"/>
      <path d="M74.962 256.001c0-125.485 93.327-229.158 214.355-245.434a249.77 249.77 0 0 0-33.316-2.238C119.216 8.329 8.33 119.215 8.33 256.001s110.886 247.672 247.671 247.672c11.3 0 22.417-.772 33.316-2.238C168.289 485.159 74.962 381.486 74.962 256.001z" opacity=".1"/>
      <path d="M311.525 256.001l65.206-65.206c4.74-4.74 4.74-12.425 0-17.163l-38.36-38.36c-4.74-4.74-12.425-4.74-17.164 0l-65.206 65.206-65.206-65.206c-4.74-4.74-12.425-4.74-17.163 0l-38.36 38.36c-4.74 4.74-4.74 12.425 0 17.163l65.206 65.206-65.206 65.206c-4.74 4.74-4.74 12.425 0 17.164l38.36 38.36c4.74 4.74 12.425 4.74 17.163 0l65.206-65.206 65.206 65.206c4.74 4.74 12.425 4.74 17.164 0l38.36-38.36c4.74-4.74 4.74-12.425 0-17.164l-65.206-65.206z" fill="#fff"/>
      <path d="M388.614 182.213a20.326 20.326 0 0 0-5.995-14.471l-38.36-38.36c-3.865-3.865-9.004-5.994-14.471-5.994s-10.605 2.129-14.471 5.994l-59.316 59.316-59.316-59.316a20.33 20.33 0 0 0-14.471-5.994 20.33 20.33 0 0 0-14.471 5.994l-38.36 38.36c-7.979 7.979-7.979 20.962 0 28.943l59.316 59.316-59.316 59.316c-7.979 7.979-7.979 20.962 0 28.943l38.36 38.36a20.33 20.33 0 0 0 14.471 5.993 20.334 20.334 0 0 0 14.471-5.993l59.316-59.316 59.316 59.316c3.865 3.865 9.004 5.993 14.471 5.993s10.605-2.129 14.471-5.993l38.36-38.36a20.328 20.328 0 0 0 5.995-14.471 20.326 20.326 0 0 0-5.995-14.471l-59.315-59.316 59.315-59.315a20.341 20.341 0 0 0 5.995-14.474zm-17.774 2.692l-65.204 65.206a8.327 8.327 0 0 0 0 11.778l65.204 65.207a3.788 3.788 0 0 1 1.115 2.692c0 .589-.144 1.721-1.115 2.692l-38.36 38.36a3.788 3.788 0 0 1-2.692 1.115 3.787 3.787 0 0 1-2.692-1.115l-65.206-65.206a8.304 8.304 0 0 0-5.889-2.44 8.3 8.3 0 0 0-5.889 2.44l-65.206 65.206a3.788 3.788 0 0 1-2.692 1.115c-.59 0-1.722-.144-2.693-1.115l-38.36-38.36a3.813 3.813 0 0 1 0-5.385l65.206-65.206a8.327 8.327 0 0 0 0-11.778l-65.206-65.206a3.813 3.813 0 0 1 0-5.385l38.359-38.36c.971-.971 2.104-1.115 2.693-1.115s1.722.144 2.692 1.115l65.206 65.206a8.327 8.327 0 0 0 11.778 0l65.206-65.206a3.788 3.788 0 0 1 2.692-1.115c.589 0 1.722.144 2.692 1.115l38.36 38.36c.971.971 1.115 2.103 1.115 2.692s-.143 1.722-1.114 2.693z"/>
      <path d="M423.9 73.756a8.327 8.327 0 0 0 .086 11.778c46.016 45.349 71.358 105.89 71.358 170.466 0 63.931-24.896 124.035-70.102 169.241s-105.31 70.102-169.241 70.102c-35.385 0-69.471-7.555-101.311-22.455a8.329 8.329 0 0 0-7.061 15.087C181.695 503.917 218.156 512 255.999 512c68.381 0 132.668-26.629 181.019-74.982 48.352-48.352 74.98-112.64 74.98-181.019 0-69.072-27.106-133.825-76.323-182.331a8.324 8.324 0 0 0-11.775.088zM116.34 470.563a8.324 8.324 0 0 0 11.526-2.426 8.329 8.329 0 0 0-2.426-11.526C57.325 412.187 16.66 337.192 16.66 256c0-63.931 24.896-124.035 70.102-169.24 45.206-45.206 105.31-70.102 169.241-70.102 52.234 0 101.864 16.528 143.525 47.796a8.33 8.33 0 0 0 9.998-13.323C364.958 17.681 311.87 0 256.002 0c-68.38 0-132.668 26.629-181.019 74.98C26.63 123.333.001 187.62.001 255.999c0 86.842 43.492 167.052 116.339 214.564z"/>
    </symbol>

    <symbol id="search" viewBox="0 0 18 18">
      <path fill="currentColor" d="M7.012 3c2.193 0 3.977 1.794 3.977 4 0 0.831-0.255 1.63-0.737 2.312l-0.392 0.553-0.55 0.393c-0.678 0.485-1.473 0.742-2.298 0.742-2.193 0-3.977-1.794-3.977-4s1.784-4 3.977-4zM7.012 1c-3.295 0-5.966 2.686-5.966 6s2.671 6 5.966 6c1.288 0 2.477-0.414 3.451-1.112l4.791 4.819c0.195 0.196 0.45 0.293 0.705 0.293s0.51-0.098 0.704-0.293c0.389-0.391 0.389-1.025 0-1.416l-4.791-4.819c0.694-0.98 1.105-2.177 1.105-3.471 0-3.314-2.671-6-5.965-6v0z"></path>
    </symbol>
  </defs>
</svg>