<svg xmlns="http://www.w3.org/2000/svg" style="display: none;">

  <symbol id="fire" viewBox="0 0 1792 1792">
    <path d="M1600 1696v64q0 13-9.5 22.5t-22.5 9.5h-1344q-13 0-22.5-9.5t-9.5-22.5v-64q0-13 9.5-22.5t22.5-9.5h1344q13 0 22.5 9.5t9.5 22.5zm-256-1056q0 78-24.5 144t-64 112.5-87.5 88-96 77.5-87.5 72-64 81.5-24.5 96.5q0 96 67 224l-4-1 1 1q-90-41-160-83t-138.5-100-113.5-122.5-72.5-150.5-27.5-184q0-78 24.5-144t64-112.5 87.5-88 96-77.5 87.5-72 64-81.5 24.5-96.5q0-94-66-224l3 1-1-1q90 41 160 83t138.5 100 113.5 122.5 72.5 150.5 27.5 184z"/>
  </symbol>

  <symbol id="nature" viewBox="0 0 1792 1792">
    <path d="M1594 1103q-32 80-76 138t-91 88.5-99 46.5-101.5 14.5-96.5-8.5-86.5-22-69.5-27.5-46-22.5l-17-10q-113 228-289.5 359.5t-384.5 132.5q-19 0-32-13t-13-32 13-31.5 32-12.5q173-1 322.5-107.5t251.5-294.5q-36 14-72 23t-83 13-91-2.5-93-28.5-92-59-84.5-100-74.5-146q114-47 214-57t167.5 7.5 124.5 56.5 88.5 77 56.5 82q53-131 79-291-7 1-18 2.5t-46.5 2.5-69.5-.5-81.5-10-88.5-23-84-42.5-75-65-54.5-94.5-28.5-127.5q70-28 133.5-36.5t112.5 1 92 30 73.5 50 56 61 42 63 27.5 56 16 39.5l4 16q12-122 12-195-8-6-21.5-16t-49-44.5-63.5-71.5-54-93-33-112.5 12-127 70-138.5q73 25 127.5 61.5t84.5 76.5 48 85 20.5 89-.5 85.5-13 76.5-19 62-17 42l-7 15q1 4 1 50t-1 72q3-7 10-18.5t30.5-43 50.5-58 71-55.5 91.5-44.5 112-14.5 132.5 24q-2 78-21.5 141.5t-50 104.5-69.5 71.5-81.5 45.5-84.5 24-80 9.5-67.5-1-46.5-4.5l-17-3q-23 147-73 283 6-7 18-18.5t49.5-41 77.5-52.5 99.5-42 117.5-20 129 23.5 137 77.5z"/>
  </symbol>

  <symbol id="water" viewBox="0 0 1792 1792">
    <path d="M896 1152q0-36-20-69-1-1-15.5-22.5t-25.5-38-25-44-21-50.5q-4-16-21-16t-21 16q-7 23-21 50.5t-25 44-25.5 38-15.5 22.5q-20 33-20 69 0 53 37.5 90.5t90.5 37.5 90.5-37.5 37.5-90.5zm512-128q0 212-150 362t-362 150-362-150-150-362q0-145 81-275 6-9 62.5-90.5t101-151 99.5-178 83-201.5q9-30 34-47t51-17 51.5 17 33.5 47q28 93 83 201.5t99.5 178 101 151 62.5 90.5q81 127 81 275z"/>
  </symbol>

</svg>
