<svg xmlns="http://www.w3.org/2000/svg" style="display: none;">

  <symbol id="eye" viewBox="0 0 1792 1792">
    <path d="M1664 960q-152-236-381-353 61 104 61 225 0 185-131.5 316.5t-316.5 131.5-316.5-131.5-131.5-316.5q0-121 61-225-229 117-381 353 133 205 333.5 326.5t434.5 121.5 434.5-121.5 333.5-326.5zm-720-384q0-20-14-34t-34-14q-125 0-214.5 89.5t-89.5 214.5q0 20 14 34t34 14 34-14 14-34q0-86 61-147t147-61q20 0 34-14t14-34zm848 384q0 34-20 69-140 230-376.5 368.5t-499.5 138.5-499.5-139-376.5-368q-20-35-20-69t20-69q140-229 376.5-368t499.5-139 499.5 139 376.5 368q20 35 20 69z"/>
  </symbol>

  <symbol id="rocket" viewBox="0 0 1792 1792">
    <path d="M1504 448q0-40-28-68t-68-28-68 28-28 68 28 68 68 28 68-28 28-68zm224-288q0 249-75.5 430.5t-253.5 360.5q-81 80-195 176l-20 379q-2 16-16 26l-384 224q-7 4-16 4-12 0-23-9l-64-64q-13-14-8-32l85-276-281-281-276 85q-3 1-9 1-14 0-23-9l-64-64q-17-19-5-39l224-384q10-14 26-16l379-20q96-114 176-195 188-187 358-258t431-71q14 0 24 9.5t10 22.5z"/>
  </symbol>

</svg>
